<svg width="96" height="103" viewBox="0 0 96 103" fill="none" xmlns="http://www.w3.org/2000/svg">
<path d="M16.1 75.9001L5.7 72.1001L2 82.5001" stroke="#12B19C" stroke-width="2.7" stroke-miterlimit="10"/>
<path d="M48.8999 43.8999C51.0999 43.8999 53.0999 44.7999 54.4999 46.1999C55.0999 46.7999 55.5999 47.5999 55.9999 48.3999" stroke="#12B19C" stroke-width="2.7" stroke-miterlimit="10"/>
<path d="M64.7 52.7001C64.7 42.9001 56.2 35.1001 46.2 36.2001C38.6 37.0001 32.5 43.1001 31.6 50.7001C30.8 57.6001 34.3 63.8001 39.7 67.0001C39.8 67.0001 39.8 67.1001 39.8 67.2001V78.2001C39.8 82.4001 43.2 85.8001 47.4 85.8001H48.8C53 85.8001 56.4 82.4001 56.4 78.2001V67.2001C56.4 67.1001 56.4 67.0001 56.5 67.0001C61.4 64.1001 64.7 58.8001 64.7 52.7001Z" stroke="#12B19C" stroke-width="2.7" stroke-miterlimit="10"/>
<path d="M39.8 74.1001H56.4" stroke="#12B19C" stroke-width="2.7" stroke-miterlimit="10"/>
<path d="M72.3999 53H74.9999" stroke="#12B19C" stroke-width="2.7" stroke-miterlimit="10"/>
<path d="M21.2 53H23.8" stroke="#12B19C" stroke-width="2.7" stroke-miterlimit="10"/>
<path d="M48.1001 28.7001V26.1001" stroke="#12B19C" stroke-width="2.7" stroke-miterlimit="10"/>
<path d="M65.3 35.8L67.1001 34" stroke="#12B19C" stroke-width="2.7" stroke-miterlimit="10"/>
<path d="M29 72.1L30.9 70.2" stroke="#12B19C" stroke-width="2.7" stroke-miterlimit="10"/>
<path d="M30.9 35.8L29 34" stroke="#12B19C" stroke-width="2.7" stroke-miterlimit="10"/>
<path d="M67.1001 72.1L65.3 70.2" stroke="#12B19C" stroke-width="2.7" stroke-miterlimit="10"/>
<path d="M82.6001 71.7L84.6001 82.6L95.4001 80.4" stroke="#12B19C" stroke-width="2.7" stroke-miterlimit="10"/>
<path d="M75.8999 91.3001C59.3999 104 35.8 104.1 19.1 90.4001C13 85.4001 8.49995 79.0001 5.69995 72.1001" stroke="#12B19C" stroke-width="2.7" stroke-miterlimit="10"/>
<path d="M67 13.3999C70.5 14.9999 73.9 17.0999 77.1 19.6999C96.1 35.2999 99.3 63.0999 84.6 82.5999" stroke="#12B19C" stroke-width="2.7" stroke-miterlimit="10"/>
<path d="M2.70003 59.9999C1.40003 48.1999 4.70004 35.8999 12.8 25.9999C23.5 12.9999 40 7.39991 55.6 9.89991" stroke="#12B19C" stroke-width="2.7" stroke-miterlimit="10"/>
<path d="M47 16.9L55.6 9.9L48.4 1.5" stroke="#12B19C" stroke-width="2.7" stroke-miterlimit="10"/>
</svg>
