<svg width="73" height="87" viewBox="0 0 73 87" fill="none" xmlns="http://www.w3.org/2000/svg">
<path d="M0.800049 86.0999V77.5999H6.60004V70.9999H13.2V36.3999H17.9V35.7999C18.6 26.6999 26.1 19.1999 35.2 18.4999H35.8V11.7999L35.3 11.6999C33.3 11.1999 31.7 9.5999 31.2 7.6999C30.8 6.1999 31 4.6999 31.7 3.2999C32.5 1.9999 33.7 0.999903 35.2 0.599903C35.7 0.499903 36.2 0.399902 36.7 0.399902C37.7 0.399902 38.6 0.599903 39.5 1.0999L38.4 2.5999C37.9 2.2999 37.3 2.1999 36.7 2.1999C36.3 2.1999 36 2.1999 35.7 2.2999C34.7 2.5999 33.9 3.1999 33.4 4.0999C32.9 4.9999 32.8 6.0999 33 7.0999C33.5 8.7999 35 9.8999 36.8 9.8999C37.2 9.8999 37.5 9.8999 37.8 9.7999C38.7 9.4999 39.5 8.9999 40 8.1999L41.7 8.9999C40.9 10.2999 39.7 11.1999 38.3 11.5999L37.7 11.6999L37.6001 12.1999V18.3999H38.2C47.3 19.0999 54.8 26.5999 55.5 35.6999V36.2999H60.2V70.8999H66.8V77.4999H72.6001V85.9999L0.800049 86.0999ZM2.60004 84.1999H70.8V79.3999H2.60004V84.1999ZM8.40005 77.5999H65V72.7999H8.40005V77.5999ZM36.7 48.1999C42.2 48.1999 46.6001 52.5999 46.6001 58.0999V70.9999H58.4V38.1999H15V70.8999H26.8V58.0999C26.8 52.5999 31.3 48.1999 36.7 48.1999ZM36.7 49.9999C32.3 49.9999 28.7 53.5999 28.7 57.9999V70.8999H44.8V58.0999C44.8 53.5999 41.2 49.9999 36.7 49.9999ZM36.7 20.2999C27.9 20.2999 20.6 26.8999 19.8 35.6999L19.7 36.3999H53.7L53.6001 35.6999C52.8001 26.8999 45.6 20.2999 36.7 20.2999Z" fill="#12B19C"/>
</svg>
