<svg width="127" height="111" viewBox="0 0 127 111" fill="none" xmlns="http://www.w3.org/2000/svg">
<path d="M64.8001 33.9C68.2243 33.9 71.0001 31.1242 71.0001 27.7C71.0001 24.2758 68.2243 21.5 64.8001 21.5C61.3759 21.5 58.6001 24.2758 58.6001 27.7C58.6001 31.1242 61.3759 33.9 64.8001 33.9Z" stroke="#12B19C" stroke-width="0.9" stroke-miterlimit="10"/>
<path d="M63.2999 64.7001C67.1107 64.7001 70.1999 61.6109 70.1999 57.8001C70.1999 53.9894 67.1107 50.9001 63.2999 50.9001C59.4891 50.9001 56.3999 53.9894 56.3999 57.8001C56.3999 61.6109 59.4891 64.7001 63.2999 64.7001Z" stroke="#12B19C" stroke-width="0.9" stroke-miterlimit="10"/>
<path d="M50.8001 26.2C54.2243 26.2 57.0001 23.4242 57.0001 20C57.0001 16.5759 54.2243 13.8 50.8001 13.8C47.3759 13.8 44.6001 16.5759 44.6001 20C44.6001 23.4242 47.3759 26.2 50.8001 26.2Z" stroke="#12B19C" stroke-width="0.9" stroke-miterlimit="10"/>
<path d="M56.9997 50.4C61.8598 50.4 65.7997 46.4601 65.7997 41.6C65.7997 36.7399 61.8598 32.8 56.9997 32.8C52.1396 32.8 48.1997 36.7399 48.1997 41.6C48.1997 46.4601 52.1396 50.4 56.9997 50.4Z" stroke="#12B19C" stroke-width="0.9" stroke-miterlimit="10"/>
<path d="M76.5997 46.6C81.2389 46.6 84.9997 42.8392 84.9997 38.2C84.9997 33.5609 81.2389 29.8 76.5997 29.8C71.9605 29.8 68.1997 33.5609 68.1997 38.2C68.1997 42.8392 71.9605 46.6 76.5997 46.6Z" stroke="#12B19C" stroke-width="0.9" stroke-miterlimit="10"/>
<path d="M87.2999 33.3C90.5584 33.3 93.1999 30.6585 93.1999 27.4C93.1999 24.1415 90.5584 21.5 87.2999 21.5C84.0414 21.5 81.3999 24.1415 81.3999 27.4C81.3999 30.6585 84.0414 33.3 87.2999 33.3Z" stroke="#12B19C" stroke-width="0.9" stroke-miterlimit="10"/>
<path d="M38.4997 39.2001C41.4268 39.2001 43.7997 36.8272 43.7997 33.9001C43.7997 30.973 41.4268 28.6001 38.4997 28.6001C35.5726 28.6001 33.1997 30.973 33.1997 33.9001C33.1997 36.8272 35.5726 39.2001 38.4997 39.2001Z" stroke="#12B19C" stroke-width="0.9" stroke-miterlimit="10"/>
<path d="M75.9999 28.8001C78.2643 28.8001 80.0999 26.9645 80.0999 24.7001C80.0999 22.4357 78.2643 20.6001 75.9999 20.6001C73.7355 20.6001 71.8999 22.4357 71.8999 24.7001C71.8999 26.9645 73.7355 28.8001 75.9999 28.8001Z" stroke="#12B19C" stroke-width="0.9" stroke-miterlimit="10"/>
<path d="M71.3001 20.3001C73.3435 20.3001 75.0001 18.6436 75.0001 16.6001C75.0001 14.5567 73.3435 12.9001 71.3001 12.9001C69.2566 12.9001 67.6001 14.5567 67.6001 16.6001C67.6001 18.6436 69.2566 20.3001 71.3001 20.3001Z" stroke="#12B19C" stroke-width="0.9" stroke-miterlimit="10"/>
<path d="M86.1 52.6001C88.3644 52.6001 90.2 50.7645 90.2 48.5001C90.2 46.2358 88.3644 44.4001 86.1 44.4001C83.8356 44.4001 82 46.2358 82 48.5001C82 50.7645 83.8356 52.6001 86.1 52.6001Z" stroke="#12B19C" stroke-width="0.9" stroke-miterlimit="10"/>
<path d="M61.8998 20C64.1642 20 65.9998 18.1644 65.9998 15.9001C65.9998 13.6357 64.1642 11.8 61.8998 11.8C59.6354 11.8 57.7998 13.6357 57.7998 15.9001C57.7998 18.1644 59.6354 20 61.8998 20Z" stroke="#12B19C" stroke-width="0.9" stroke-miterlimit="10"/>
<path d="M76.6001 59.2C79.6377 59.2 82.1001 56.7375 82.1001 53.7C82.1001 50.6624 79.6377 48.2 76.6001 48.2C73.5625 48.2 71.1001 50.6624 71.1001 53.7C71.1001 56.7375 73.5625 59.2 76.6001 59.2Z" stroke="#12B19C" stroke-width="0.9" stroke-miterlimit="10"/>
<path d="M48.7998 61.5C52.1135 61.5 54.7998 58.8137 54.7998 55.5C54.7998 52.1863 52.1135 49.5 48.7998 49.5C45.4861 49.5 42.7998 52.1863 42.7998 55.5C42.7998 58.8137 45.4861 61.5 48.7998 61.5Z" stroke="#12B19C" stroke-width="0.9" stroke-miterlimit="10"/>
<path d="M90.9 43.8C93.6062 43.8 95.8 41.6062 95.8 38.9C95.8 36.1938 93.6062 34 90.9 34C88.1938 34 86 36.1938 86 38.9C86 41.6062 88.1938 43.8 90.9 43.8Z" stroke="#12B19C" stroke-width="0.9" stroke-miterlimit="10"/>
<path d="M42.3001 49.9C44.8958 49.9 47.0001 47.7957 47.0001 45.2C47.0001 42.6043 44.8958 40.5 42.3001 40.5C39.7044 40.5 37.6001 42.6043 37.6001 45.2C37.6001 47.7957 39.7044 49.9 42.3001 49.9Z" stroke="#12B19C" stroke-width="0.9" stroke-miterlimit="10"/>
<path d="M81.9 22.1C83.5016 22.1 84.8 20.8017 84.8 19.2001C84.8 17.5984 83.5016 16.3 81.9 16.3C80.2984 16.3 79 17.5984 79 19.2001C79 20.8017 80.2984 22.1 81.9 22.1Z" stroke="#12B19C" stroke-width="0.9" stroke-miterlimit="10"/>
<path d="M41.9 27.5C43.5016 27.5 44.8 26.2016 44.8 24.6C44.8 22.9983 43.5016 21.7 41.9 21.7C40.2984 21.7 39 22.9983 39 24.6C39 26.2016 40.2984 27.5 41.9 27.5Z" stroke="#12B19C" stroke-width="0.9" stroke-miterlimit="10"/>
<path d="M68.2999 50.9001C69.9015 50.9001 71.1999 49.6017 71.1999 48.0001C71.1999 46.3985 69.9015 45.1001 68.2999 45.1001C66.6983 45.1001 65.3999 46.3985 65.3999 48.0001C65.3999 49.6017 66.6983 50.9001 68.2999 50.9001Z" stroke="#12B19C" stroke-width="0.9" stroke-miterlimit="10"/>
<path d="M47.7 33.0001C49.4673 33.0001 50.9 31.5674 50.9 29.8001C50.9 28.0328 49.4673 26.6001 47.7 26.6001C45.9327 26.6001 44.5 28.0328 44.5 29.8001C44.5 31.5674 45.9327 33.0001 47.7 33.0001Z" stroke="#12B19C" stroke-width="0.9" stroke-miterlimit="10"/>
<path d="M97.3001 30.8001C99.0674 30.8001 100.5 29.3675 100.5 27.6001C100.5 25.8328 99.0674 24.4001 97.3001 24.4001C95.5328 24.4001 94.1001 25.8328 94.1001 27.6001C94.1001 29.3675 95.5328 30.8001 97.3001 30.8001Z" stroke="#12B19C" stroke-width="0.9" stroke-miterlimit="10"/>
<path d="M84.1 15.1001C85.2598 15.1001 86.2 14.1599 86.2 13.0001C86.2 11.8403 85.2598 10.9001 84.1 10.9001C82.9402 10.9001 82 11.8403 82 13.0001C82 14.1599 82.9402 15.1001 84.1 15.1001Z" stroke="#12B19C" stroke-width="0.9" stroke-miterlimit="10"/>
<path d="M29.6001 39.8C30.9808 39.8 32.1001 38.6808 32.1001 37.3C32.1001 35.9193 30.9808 34.8 29.6001 34.8C28.2194 34.8 27.1001 35.9193 27.1001 37.3C27.1001 38.6808 28.2194 39.8 29.6001 39.8Z" stroke="#12B19C" stroke-width="0.9" stroke-miterlimit="10"/>
<path d="M78.2997 15.9C79.4595 15.9 80.3997 14.9597 80.3997 13.7999C80.3997 12.6402 79.4595 11.7 78.2997 11.7C77.1399 11.7 76.1997 12.6402 76.1997 13.7999C76.1997 14.9597 77.1399 15.9 78.2997 15.9Z" stroke="#12B19C" stroke-width="0.9" stroke-miterlimit="10"/>
<path d="M94.7001 23.9C96.136 23.9 97.3001 22.7359 97.3001 21.3C97.3001 19.864 96.136 18.7 94.7001 18.7C93.2641 18.7 92.1001 19.864 92.1001 21.3C92.1001 22.7359 93.2641 23.9 94.7001 23.9Z" stroke="#12B19C" stroke-width="0.9" stroke-miterlimit="10"/>
<path d="M29.4999 33.5C30.9358 33.5 32.0999 32.336 32.0999 30.9C32.0999 29.4641 30.9358 28.3 29.4999 28.3C28.064 28.3 26.8999 29.4641 26.8999 30.9C26.8999 32.336 28.064 33.5 29.4999 33.5Z" stroke="#12B19C" stroke-width="0.9" stroke-miterlimit="10"/>
<path d="M34.7998 27.7C36.1805 27.7 37.2998 26.5807 37.2998 25.2C37.2998 23.8192 36.1805 22.7 34.7998 22.7C33.4191 22.7 32.2998 23.8192 32.2998 25.2C32.2998 26.5807 33.4191 27.7 34.7998 27.7Z" stroke="#12B19C" stroke-width="0.9" stroke-miterlimit="10"/>
<path d="M37.3999 21.9001C38.7806 21.9001 39.8999 20.7809 39.8999 19.4001C39.8999 18.0194 38.7806 16.9001 37.3999 16.9001C36.0192 16.9001 34.8999 18.0194 34.8999 19.4001C34.8999 20.7809 36.0192 21.9001 37.3999 21.9001Z" stroke="#12B19C" stroke-width="0.9" stroke-miterlimit="10"/>
<path d="M67.2001 12.5C68.3599 12.5 69.3001 11.5598 69.3001 10.4001C69.3001 9.24025 68.3599 8.30005 67.2001 8.30005C66.0403 8.30005 65.1001 9.24025 65.1001 10.4001C65.1001 11.5598 66.0403 12.5 67.2001 12.5Z" stroke="#12B19C" stroke-width="0.9" stroke-miterlimit="10"/>
<path d="M88.3998 20.3001C89.8357 20.3001 90.9998 19.136 90.9998 17.7001C90.9998 16.2642 89.8357 15.1001 88.3998 15.1001C86.9639 15.1001 85.7998 16.2642 85.7998 17.7001C85.7998 19.136 86.9639 20.3001 88.3998 20.3001Z" stroke="#12B19C" stroke-width="0.9" stroke-miterlimit="10"/>
<path d="M34.1 44.9C35.5359 44.9 36.7 43.7359 36.7 42.3C36.7 40.864 35.5359 39.7 34.1 39.7C32.6641 39.7 31.5 40.864 31.5 42.3C31.5 43.7359 32.6641 44.9 34.1 44.9Z" stroke="#12B19C" stroke-width="0.9" stroke-miterlimit="10"/>
<path d="M54.8998 31.5C56.3357 31.5 57.4998 30.336 57.4998 28.9C57.4998 27.4641 56.3357 26.3 54.8998 26.3C53.4639 26.3 52.2998 27.4641 52.2998 28.9C52.2998 30.336 53.4639 31.5 54.8998 31.5Z" stroke="#12B19C" stroke-width="0.9" stroke-miterlimit="10"/>
<path d="M98.9999 37.3001C100.436 37.3001 101.6 36.136 101.6 34.7001C101.6 33.2642 100.436 32.1001 98.9999 32.1001C97.564 32.1001 96.3999 33.2642 96.3999 34.7001C96.3999 36.136 97.564 37.3001 98.9999 37.3001Z" stroke="#12B19C" stroke-width="0.9" stroke-miterlimit="10"/>
<path d="M119.4 77.8999C120.228 77.8999 120.9 77.2283 120.9 76.3999C120.9 75.5715 120.228 74.8999 119.4 74.8999C118.571 74.8999 117.9 75.5715 117.9 76.3999C117.9 77.2283 118.571 77.8999 119.4 77.8999Z" fill="#12B19C"/>
<path d="M113.9 77.8999C114.728 77.8999 115.4 77.2283 115.4 76.3999C115.4 75.5715 114.728 74.8999 113.9 74.8999C113.071 74.8999 112.4 75.5715 112.4 76.3999C112.4 77.2283 113.071 77.8999 113.9 77.8999Z" fill="#12B19C"/>
<path d="M108.5 77.8999C109.328 77.8999 110 77.2283 110 76.3999C110 75.5715 109.328 74.8999 108.5 74.8999C107.672 74.8999 107 75.5715 107 76.3999C107 77.2283 107.672 77.8999 108.5 77.8999Z" fill="#12B19C"/>
<path d="M34.5001 110.3C32.0001 110.3 30.1001 108.3 30.1001 105.9C30.1001 103.5 32.1001 101.5 34.5001 101.5H42.5001L46.5001 83.0999H7.4001C3.6001 83.0999 0.600098 80 0.600098 76.3V6.99995C0.600098 3.19995 3.7001 0.199951 7.4001 0.199951H119.9C123.7 0.199951 126.7 3.29995 126.7 6.99995V76.2C126.7 80 123.6 83 119.9 83H81.2001L84.4001 101.4H92.8001C95.3001 101.4 97.2001 103.4 97.2001 105.8C97.2001 108.2 95.2001 110.2 92.8001 110.2H34.5001V110.3ZM34.5001 103.7C33.3001 103.7 32.3001 104.7 32.3001 105.9C32.3001 107.1 33.3001 108.1 34.5001 108.1H92.8001C94.0001 108.1 95.0001 107.1 95.0001 105.9C95.0001 104.7 94.0001 103.7 92.8001 103.7H34.5001ZM82.1001 101.4L78.9001 83H48.9001L44.9001 101.4H82.1001ZM2.8001 76.5999C2.8001 78.8999 4.7001 80.7 6.9001 80.7H120.4C122.7 80.7 124.5 78.7999 124.5 76.5999V71.7H2.8001V76.5999ZM124.5 69.5V6.49995C124.5 4.19995 122.6 2.39995 120.4 2.39995H6.9001C4.6001 2.39995 2.8001 4.29995 2.8001 6.49995V69.5H124.5Z" fill="#12B19C"/>
</svg>
