<svg width="59" height="89" viewBox="0 0 59 89" fill="none" xmlns="http://www.w3.org/2000/svg">
<path d="M29.7999 88.3C29.6999 88.3 29.4999 88.3 29.3999 88.2L9.7999 77C9.5999 76.9 9.3999 76.6 9.3999 76.3V63.8C9.3999 63.4 9.7999 63 10.1999 63C10.5999 63 10.9999 63.4 10.9999 63.8V75.9L29.7999 86.6L48.5999 75.9V63.8C48.5999 63.4 48.9999 63 49.3999 63C49.7999 63 50.1999 63.4 50.1999 63.8V76.3C50.1999 76.6 49.9999 76.9 49.7999 77L30.1999 88.2C30.0999 88.3 29.9999 88.3 29.7999 88.3Z" fill="#12B19C"/>
<path d="M49.3998 54.8C49.2998 54.8 49.0998 54.8 48.9998 54.7L34.2998 46.2C34.0998 46.1 33.9998 45.9 33.8998 45.7C33.7998 45.5 33.8998 45.3 33.9998 45.1C34.0998 44.9 34.3998 44.7 34.6998 44.7C34.7998 44.7 34.9998 44.7 35.0998 44.8L49.7998 53.3C49.9998 53.4 50.0998 53.6 50.1998 53.8C50.2998 54 50.1998 54.2 50.0998 54.4C49.9998 54.6 49.6998 54.8 49.3998 54.8Z" fill="#12B19C"/>
<path d="M10.3 54.8C10 54.8 9.7 54.6 9.6 54.4C9.5 54.2 9.5 54 9.5 53.8C9.6 53.6 9.7 53.4 9.9 53.3L24.1 45.1C24.2 45 24.4 45 24.5 45C24.8 45 25.1 45.2 25.2 45.4C25.4 45.8 25.3 46.3 24.9 46.5L10.7 54.7C10.6 54.8 10.4 54.8 10.3 54.8Z" fill="#12B19C"/>
<path d="M29.8 65.9001C29.5 65.9001 29.2 65.7001 29.1 65.5001C29 65.3001 29 65.1001 29 64.9001C29 64.7001 29.2 64.5001 29.4 64.4001L49 53.2001C49.1 53.1001 49.3 53.1001 49.4 53.1001C49.7 53.1001 50 53.3001 50.1 53.5001C50.2 53.7001 50.2 53.9001 50.2 54.1001C50.2 54.3001 50 54.5001 49.8 54.6001L30.2 65.8001C30.1 65.9001 30 65.9001 29.8 65.9001Z" fill="#12B19C"/>
<path d="M29.8 88.2999C29.4 88.2999 29 87.8999 29 87.4999V65.1999C29 64.7999 29.4 64.3999 29.8 64.3999C30.2 64.3999 30.6 64.7999 30.6 65.1999V87.4999C30.6 87.8999 30.3 88.2999 29.8 88.2999Z" fill="#12B19C"/>
<path d="M21.2999 70.8C21.1999 70.8 20.9999 70.8 20.8999 70.7L1.2999 59.6C1.0999 59.5 0.899902 59.2 0.899902 58.9C0.899902 58.6 1.0999 58.3 1.2999 58.2L9.8999 53.3C9.9999 53.2 10.1999 53.2 10.2999 53.2C10.3999 53.2 10.5999 53.2 10.6999 53.3L30.1999 64.4C30.3999 64.5 30.4999 64.7 30.5999 64.9C30.6999 65.1 30.5999 65.3 30.4999 65.5C30.3999 65.6 30.2999 65.7 30.1999 65.8L21.6999 70.7C21.5999 70.8 21.3999 70.8 21.2999 70.8ZM3.3999 58.9L21.2999 69.1L28.1999 65.1L10.2999 54.9L3.3999 58.9Z" fill="#12B19C"/>
<path d="M49.4 54.8C49.1 54.8 48.8 54.6 48.7 54.4C48.6 54.2 48.6 54 48.6 53.8C48.6 53.6 48.8 53.4 49 53.3L56.3 49.1L48 44.3C47.8 44.2 47.7 44 47.6 43.8C47.5 43.6 47.6 43.4 47.7 43.2C47.8 43 48.1 42.8 48.4 42.8C48.5 42.8 48.7 42.8 48.8 42.9L58.3 48.4C58.5 48.5 58.7 48.8 58.7 49.1C58.7 49.4 58.5 49.7 58.3 49.8L49.7 54.7C49.7 54.7 49.5 54.8 49.4 54.8Z" fill="#12B19C"/>
<path d="M38.4 70.8C38.3 70.8 38.1 70.8 38 70.7L29.4 65.8C29.2 65.7 29 65.4 29 65.1C29 64.8 29.2 64.5 29.4 64.4L49 53.3C49.1 53.2 49.3 53.2 49.4 53.2C49.5 53.2 49.7 53.2 49.8 53.3L58.4 58.2C58.6 58.3 58.8 58.6 58.8 58.9C58.8 59.2 58.6 59.5 58.4 59.6L38.9 70.7C38.7 70.8 38.6 70.8 38.4 70.8ZM31.5 65.1L38.4 69.1L56.3 58.9L49.4 55C49.4 54.9 31.5 65.1 31.5 65.1Z" fill="#12B19C"/>
<path d="M10.2999 54.8C10.1999 54.8 9.9999 54.8 9.8999 54.7L1.2999 49.8C0.999904 49.7 0.899902 49.4 0.899902 49.1C0.899902 48.8 1.0999 48.5 1.2999 48.4L10.8999 43.3C10.9999 43.2 11.0999 43.2 11.2999 43.2C11.5999 43.2 11.8999 43.4 11.9999 43.6C12.0999 43.8 12.0999 44 12.0999 44.2C11.9999 44.4 11.8999 44.6 11.6999 44.7L3.3999 49.1L10.6999 53.3C10.8999 53.4 10.9999 53.6 11.0999 53.8C11.1999 54 11.0999 54.2 10.9999 54.4C10.7999 54.6 10.5999 54.8 10.2999 54.8Z" fill="#12B19C"/>
<path d="M29.8998 43.7C29.5998 43.7 29.2999 43.5001 29.1999 43.3001C28.9999 42.9001 29.0999 42.4 29.4999 42.2L42.8998 34.9001C42.9998 34.8001 43.0999 34.8 43.2999 34.8C43.5999 34.8 43.8999 35.0001 43.9999 35.2001C44.0999 35.4001 44.0999 35.6 44.0999 35.8C43.9999 36 43.8999 36.2 43.6999 36.3L30.2999 43.6C30.1999 43.7 29.9998 43.7 29.8998 43.7Z" fill="#12B19C"/>
<path d="M41.4 43.8C39.2 43.8 37.3 42.3 35.7 39.4C34.1 36.4 33.9 34 35.2 32.1C37.3 29.2 42.6 28.5 46.8 28.5C50.1 28.5 52.9 28.9 53.5 29C53.7 29 54 29.2 54.1 29.4C54.2 29.6 54.2 29.9 54.1 30.1C53.5 31.5 47.8 43.5 41.6 43.7L41.4 43.8ZM46.8 30.2C43 30.2 38.2 30.7 36.5 33.1C35.6 34.4 35.8 36.3 37.1 38.7C38.4 41.1 39.8 42.2 41.4 42.2H41.5C45.8 42 50.5 33.6 51.9 31L52.2 30.5L51.6 30.4C50.5 30.3 48.8 30.2 46.8 30.2Z" fill="#12B19C"/>
<path d="M29.8999 43.7C29.7999 43.7 29.5999 43.7 29.4999 43.6L16.1 36.3C15.7 36.1 15.6 35.6001 15.8 35.2001C15.9 34.9001 16.1999 34.8 16.4999 34.8C16.5999 34.8 16.7999 34.8001 16.8999 34.9001L30.3 42.2C30.7 42.4 30.8 42.9001 30.6 43.3001C30.5 43.6001 30.1999 43.7 29.8999 43.7Z" fill="#12B19C"/>
<path d="M18.2 43.8001C12 43.6001 6.3 31.5001 5.7 30.2001C5.6 30.0001 5.6 29.7001 5.7 29.5001C5.8 29.3001 6.00001 29.1001 6.30001 29.1001C6.80001 29.0001 9.7 28.6001 13 28.6001C17.1 28.6001 22.5 29.2001 24.6 32.2001C25.9 34.1001 25.7 36.5001 24.1 39.5001C22.5 42.4001 20.6 43.9001 18.4 43.9001L18.2 43.8001ZM13 30.2001C11.1 30.2001 9.3 30.3001 8.2 30.4001L7.6 30.5001L7.9 31.0001C9.2 33.6001 13.9 42.0001 18.3 42.2001H18.4C20 42.2001 21.4 41.0001 22.7 38.7001C24 36.3001 24.2 34.4001 23.3 33.1001C21.6 30.7001 16.7 30.2001 13 30.2001Z" fill="#12B19C"/>
<path d="M29.8999 21.1999C28.8999 21.1999 27.9 20.7999 27.2 20.1999C26.9 19.8999 26.8 19.3999 27.1 19.0999C27.3 18.8999 27.5 18.7999 27.7 18.7999C27.9 18.7999 28.1 18.8999 28.2 18.9999C28.7 19.3999 29.2 19.5999 29.8 19.5999C31.2 19.5999 32.3 18.4999 32.3 17.0999C32.3 15.6999 31.2 14.5999 29.8 14.5999C27.6 14.5999 25.7 12.7999 25.7 10.4999C25.7 8.1999 27.5 6.3999 29.8 6.3999C31 6.3999 32.1 6.8999 32.8 7.7999C33.1 8.0999 33.1 8.5999 32.7 8.8999C32.6 8.9999 32.4 9.0999 32.2 9.0999C32 9.0999 31.8 8.9999 31.6 8.7999C31.1 8.2999 30.5 7.9999 29.8 7.9999C28.4 7.9999 27.3 9.0999 27.3 10.4999C27.3 11.8999 28.4 12.9999 29.8 12.9999C32 12.9999 33.8999 14.7999 33.8999 16.9999C33.8999 19.1999 32.0999 21.1999 29.8999 21.1999Z" fill="#12B19C"/>
<path d="M29.8998 8.1999C29.4998 8.1999 29.0999 7.7999 29.0999 7.3999V5.1999C29.0999 4.7999 29.4998 4.3999 29.8998 4.3999C30.2998 4.3999 30.6998 4.7999 30.6998 5.1999V7.3999C30.6998 7.7999 30.2998 8.1999 29.8998 8.1999Z" fill="#12B19C"/>
<path d="M29.8998 23.4001C29.4998 23.4001 29.0999 23.0001 29.0999 22.6001V20.4001C29.0999 20.0001 29.4998 19.6001 29.8998 19.6001C30.2998 19.6001 30.6998 20.0001 30.6998 20.4001V22.6001C30.6998 23.0001 30.2998 23.4001 29.8998 23.4001Z" fill="#12B19C"/>
<path d="M29.9 27.8C22.2 27.8 16 21.6 16 13.9C16 6.2 22.2 0 29.9 0C37.6 0 43.8 6.2 43.8 13.9C43.8 21.6 37.6 27.8 29.9 27.8ZM29.9 1.6C23.1 1.6 17.6 7.1 17.6 13.9C17.6 20.7 23.1 26.2 29.9 26.2C36.7 26.2 42.2 20.7 42.2 13.9C42.2 7.1 36.7 1.6 29.9 1.6Z" fill="#12B19C"/>
<path d="M29.8998 55.3C29.4998 55.3 29.0999 54.9 29.0999 54.5V27C29.0999 26.6 29.4998 26.2 29.8998 26.2C30.2998 26.2 30.6998 26.6 30.6998 27V54.5C30.6998 54.9 30.2998 55.3 29.8998 55.3Z" fill="#12B19C"/>
</svg>
