<svg width="500" height="461" viewBox="0 0 500 461" fill="none" xmlns="http://www.w3.org/2000/svg">
<g id="Group">
<path id="TradingProfiler" d="M34.8502 442.042C34.376 442.042 33.973 441.9 33.641 441.616C33.3565 441.284 33.2143 440.881 33.2143 440.406V398.585H19.5584C19.0842 398.585 18.6812 398.443 18.3493 398.159C18.0648 397.827 17.9225 397.424 17.9225 396.949V393.962C17.9225 393.441 18.0648 393.038 18.3493 392.753C18.6812 392.421 19.0842 392.255 19.5584 392.255H53.8404C54.362 392.255 54.765 392.421 55.0495 392.753C55.3814 393.038 55.5474 393.441 55.5474 393.962V396.949C55.5474 397.424 55.3814 397.827 55.0495 398.159C54.765 398.443 54.362 398.585 53.8404 398.585H40.2556V440.406C40.2556 440.881 40.0897 441.284 39.7578 441.616C39.4733 441.9 39.0702 442.042 38.5486 442.042H34.8502ZM58.4668 442.042C57.9927 442.042 57.5896 441.9 57.2577 441.616C56.9732 441.284 56.831 440.881 56.831 440.406V406.765C56.831 406.29 56.9732 405.887 57.2577 405.555C57.5896 405.224 57.9927 405.058 58.4668 405.058H61.7386C62.2127 405.058 62.6158 405.224 62.9477 405.555C63.2796 405.887 63.4455 406.29 63.4455 406.765V409.894C64.3939 408.282 65.6978 407.073 67.3574 406.267C69.017 405.461 71.0322 405.058 73.403 405.058H76.1768C76.651 405.058 77.0303 405.224 77.3148 405.555C77.6467 405.84 77.8127 406.219 77.8127 406.693V409.61C77.8127 410.084 77.6467 410.463 77.3148 410.748C77.0303 411.032 76.651 411.174 76.1768 411.174H71.9094C69.3489 411.174 67.3337 411.933 65.8638 413.45C64.3939 414.92 63.6589 416.935 63.6589 419.496V440.406C63.6589 440.881 63.493 441.284 63.161 441.616C62.8291 441.9 62.4261 442.042 61.9519 442.042H58.4668ZM93.6073 442.754C91.2365 442.754 89.0791 442.279 87.135 441.331C85.1909 440.383 83.6262 439.103 82.4408 437.49C81.2554 435.878 80.6627 434.053 80.6627 432.014C80.6627 428.742 81.9903 426.134 84.6456 424.19C87.301 422.246 90.7624 420.966 95.0298 420.349L105.627 418.856V416.793C105.627 414.517 104.964 412.739 103.636 411.459C102.356 410.179 100.246 409.538 97.3058 409.538C95.2195 409.538 93.5125 409.965 92.1848 410.819C90.8572 411.672 89.9326 412.763 89.411 414.09C89.1265 414.802 88.6286 415.157 87.9174 415.157H84.7168C84.1952 415.157 83.7922 415.015 83.5077 414.731C83.2706 414.399 83.152 414.019 83.152 413.593C83.152 412.881 83.4128 412.004 83.9344 410.961C84.5034 409.918 85.3569 408.898 86.4949 407.903C87.6329 406.907 89.0791 406.077 90.8335 405.413C92.6353 404.702 94.8164 404.346 97.3769 404.346C100.222 404.346 102.616 404.726 104.561 405.484C106.505 406.196 108.022 407.168 109.112 408.4C110.25 409.633 111.057 411.032 111.531 412.597C112.052 414.162 112.313 415.75 112.313 417.362V440.406C112.313 440.881 112.147 441.284 111.815 441.616C111.531 441.9 111.151 442.042 110.677 442.042H107.405C106.884 442.042 106.481 441.9 106.196 441.616C105.912 441.284 105.77 440.881 105.77 440.406V437.348C105.153 438.202 104.323 439.055 103.28 439.909C102.237 440.715 100.933 441.402 99.3684 441.971C97.8037 442.493 95.8833 442.754 93.6073 442.754ZM95.1009 437.419C97.045 437.419 98.8231 437.016 100.435 436.21C102.047 435.357 103.304 434.053 104.205 432.298C105.153 430.544 105.627 428.339 105.627 425.684V423.692L97.3769 424.901C94.0104 425.376 91.4736 426.182 89.7666 427.32C88.0596 428.41 87.2061 429.809 87.2061 431.516C87.2061 432.844 87.5855 433.958 88.3441 434.859C89.1502 435.712 90.1459 436.352 91.3313 436.779C92.5642 437.206 93.8207 437.419 95.1009 437.419ZM136.051 442.754C133.444 442.754 131.191 442.303 129.295 441.402C127.398 440.454 125.833 439.197 124.6 437.633C123.415 436.02 122.514 434.195 121.898 432.156C121.329 430.117 120.997 427.96 120.902 425.684C120.854 424.925 120.831 424.214 120.831 423.55C120.831 422.886 120.854 422.175 120.902 421.416C120.997 419.188 121.329 417.054 121.898 415.015C122.514 412.976 123.415 411.151 124.6 409.538C125.833 407.926 127.398 406.67 129.295 405.769C131.191 404.821 133.444 404.346 136.051 404.346C138.849 404.346 141.172 404.844 143.022 405.84C144.871 406.836 146.388 408.069 147.574 409.538V393.18C147.574 392.706 147.716 392.326 148 392.042C148.332 391.71 148.735 391.544 149.209 391.544H152.623C153.098 391.544 153.477 391.71 153.761 392.042C154.093 392.326 154.259 392.706 154.259 393.18V440.406C154.259 440.881 154.093 441.284 153.761 441.616C153.477 441.9 153.098 442.042 152.623 442.042H149.423C148.901 442.042 148.498 441.9 148.214 441.616C147.929 441.284 147.787 440.881 147.787 440.406V437.419C146.602 438.937 145.061 440.217 143.164 441.26C141.267 442.256 138.896 442.754 136.051 442.754ZM137.545 436.993C139.916 436.993 141.813 436.447 143.235 435.357C144.657 434.266 145.724 432.891 146.436 431.231C147.147 429.524 147.526 427.794 147.574 426.039C147.621 425.281 147.645 424.38 147.645 423.337C147.645 422.246 147.621 421.321 147.574 420.563C147.526 418.903 147.123 417.267 146.364 415.655C145.653 414.043 144.563 412.715 143.093 411.672C141.67 410.629 139.821 410.107 137.545 410.107C135.127 410.107 133.206 410.653 131.784 411.743C130.361 412.786 129.342 414.185 128.726 415.94C128.109 417.647 127.754 419.496 127.659 421.487C127.611 422.862 127.611 424.238 127.659 425.613C127.754 427.604 128.109 429.477 128.726 431.231C129.342 432.938 130.361 434.337 131.784 435.428C133.206 436.471 135.127 436.993 137.545 436.993ZM166.473 442.042C165.999 442.042 165.596 441.9 165.264 441.616C164.98 441.284 164.837 440.881 164.837 440.406V406.693C164.837 406.219 164.98 405.84 165.264 405.555C165.596 405.224 165.999 405.058 166.473 405.058H169.887C170.361 405.058 170.741 405.224 171.025 405.555C171.357 405.84 171.523 406.219 171.523 406.693V440.406C171.523 440.881 171.357 441.284 171.025 441.616C170.741 441.9 170.361 442.042 169.887 442.042H166.473ZM165.904 398.159C165.43 398.159 165.027 398.016 164.695 397.732C164.411 397.4 164.268 396.997 164.268 396.523V392.682C164.268 392.208 164.411 391.805 164.695 391.473C165.027 391.141 165.43 390.975 165.904 390.975H170.385C170.859 390.975 171.262 391.141 171.594 391.473C171.926 391.805 172.092 392.208 172.092 392.682V396.523C172.092 396.997 171.926 397.4 171.594 397.732C171.262 398.016 170.859 398.159 170.385 398.159H165.904ZM184.324 442.042C183.85 442.042 183.447 441.9 183.115 441.616C182.83 441.284 182.688 440.881 182.688 440.406V406.693C182.688 406.219 182.83 405.84 183.115 405.555C183.447 405.224 183.85 405.058 184.324 405.058H187.667C188.141 405.058 188.52 405.224 188.805 405.555C189.137 405.84 189.303 406.219 189.303 406.693V409.823C190.535 408.211 192.076 406.907 193.926 405.911C195.822 404.868 198.241 404.346 201.18 404.346C204.262 404.346 206.87 405.034 209.004 406.409C211.185 407.737 212.821 409.61 213.912 412.028C215.05 414.399 215.619 417.172 215.619 420.349V440.406C215.619 440.881 215.453 441.284 215.121 441.616C214.836 441.9 214.457 442.042 213.983 442.042H210.427C209.952 442.042 209.549 441.9 209.217 441.616C208.933 441.284 208.791 440.881 208.791 440.406V420.705C208.791 417.386 207.985 414.802 206.372 412.952C204.76 411.056 202.389 410.107 199.26 410.107C196.32 410.107 193.949 411.056 192.148 412.952C190.393 414.802 189.516 417.386 189.516 420.705V440.406C189.516 440.881 189.35 441.284 189.018 441.616C188.734 441.9 188.354 442.042 187.88 442.042H184.324ZM240.971 457.69C237.746 457.69 235.091 457.263 233.005 456.41C230.966 455.556 229.354 454.513 228.168 453.28C227.03 452.095 226.2 450.886 225.679 449.653C225.205 448.467 224.944 447.519 224.896 446.808C224.849 446.334 224.991 445.93 225.323 445.599C225.703 445.267 226.106 445.101 226.532 445.101H229.946C230.373 445.101 230.729 445.196 231.013 445.385C231.298 445.575 231.535 445.978 231.724 446.594C232.009 447.306 232.436 448.088 233.005 448.941C233.574 449.842 234.451 450.601 235.636 451.217C236.822 451.881 238.481 452.213 240.615 452.213C242.844 452.213 244.717 451.905 246.234 451.289C247.751 450.672 248.889 449.629 249.648 448.159C250.454 446.689 250.857 444.65 250.857 442.042V437.206C249.719 438.676 248.225 439.909 246.376 440.904C244.527 441.853 242.203 442.327 239.406 442.327C236.751 442.327 234.475 441.876 232.578 440.975C230.681 440.027 229.117 438.771 227.884 437.206C226.698 435.594 225.797 433.768 225.181 431.729C224.612 429.69 224.28 427.557 224.185 425.328C224.138 424 224.138 422.696 224.185 421.416C224.28 419.188 224.612 417.054 225.181 415.015C225.797 412.976 226.698 411.151 227.884 409.538C229.117 407.926 230.681 406.67 232.578 405.769C234.475 404.821 236.751 404.346 239.406 404.346C242.251 404.346 244.598 404.868 246.447 405.911C248.344 406.954 249.885 408.258 251.07 409.823V406.765C251.07 406.29 251.213 405.887 251.497 405.555C251.829 405.224 252.232 405.058 252.706 405.058H255.978C256.452 405.058 256.855 405.224 257.187 405.555C257.519 405.887 257.685 406.29 257.685 406.765V441.26C257.685 444.437 257.14 447.258 256.049 449.724C255.006 452.189 253.251 454.134 250.786 455.556C248.368 456.979 245.096 457.69 240.971 457.69ZM240.828 436.637C243.199 436.637 245.096 436.092 246.518 435.001C247.988 433.91 249.055 432.535 249.719 430.876C250.43 429.216 250.81 427.533 250.857 425.826C250.904 425.162 250.928 424.356 250.928 423.408C250.928 422.412 250.904 421.582 250.857 420.918C250.81 419.211 250.43 417.528 249.719 415.869C249.055 414.209 247.988 412.834 246.518 411.743C245.096 410.653 243.199 410.107 240.828 410.107C238.458 410.107 236.561 410.653 235.138 411.743C233.716 412.786 232.696 414.185 232.08 415.94C231.464 417.647 231.108 419.496 231.013 421.487C230.966 422.72 230.966 423.977 231.013 425.257C231.108 427.248 231.464 429.121 232.08 430.876C232.696 432.583 233.716 433.982 235.138 435.072C236.561 436.115 238.458 436.637 240.828 436.637ZM270.82 442.042C270.299 442.042 269.896 441.9 269.611 441.616C269.327 441.284 269.184 440.881 269.184 440.406V393.962C269.184 393.441 269.327 393.038 269.611 392.753C269.896 392.421 270.299 392.255 270.82 392.255H288.886C292.395 392.255 295.429 392.824 297.99 393.962C300.598 395.1 302.613 396.807 304.035 399.083C305.458 401.312 306.169 404.109 306.169 407.476C306.169 410.842 305.458 413.64 304.035 415.869C302.613 418.097 300.598 419.78 297.99 420.918C295.429 422.056 292.395 422.625 288.886 422.625H276.297V440.406C276.297 440.881 276.131 441.284 275.799 441.616C275.514 441.9 275.111 442.042 274.59 442.042H270.82ZM276.226 416.651H288.53C292.039 416.651 294.671 415.869 296.425 414.304C298.179 412.739 299.057 410.463 299.057 407.476C299.057 404.536 298.203 402.26 296.496 400.648C294.789 399.036 292.134 398.23 288.53 398.23H276.226V416.651ZM315.529 442.042C315.055 442.042 314.652 441.9 314.32 441.616C314.035 441.284 313.893 440.881 313.893 440.406V406.765C313.893 406.29 314.035 405.887 314.32 405.555C314.652 405.224 315.055 405.058 315.529 405.058H318.801C319.275 405.058 319.678 405.224 320.01 405.555C320.342 405.887 320.508 406.29 320.508 406.765V409.894C321.456 408.282 322.76 407.073 324.42 406.267C326.079 405.461 328.094 405.058 330.465 405.058H333.239C333.713 405.058 334.093 405.224 334.377 405.555C334.709 405.84 334.875 406.219 334.875 406.693V409.61C334.875 410.084 334.709 410.463 334.377 410.748C334.093 411.032 333.713 411.174 333.239 411.174H328.972C326.411 411.174 324.396 411.933 322.926 413.45C321.456 414.92 320.721 416.935 320.721 419.496V440.406C320.721 440.881 320.555 441.284 320.223 441.616C319.891 441.9 319.488 442.042 319.014 442.042H315.529ZM355.367 442.754C351.763 442.754 348.753 442.066 346.334 440.691C343.916 439.316 342.067 437.419 340.787 435.001C339.506 432.535 338.795 429.738 338.653 426.608C338.605 425.802 338.582 424.783 338.582 423.55C338.582 422.27 338.605 421.25 338.653 420.492C338.795 417.315 339.506 414.517 340.787 412.099C342.114 409.681 343.987 407.784 346.405 406.409C348.824 405.034 351.811 404.346 355.367 404.346C358.923 404.346 361.911 405.034 364.329 406.409C366.747 407.784 368.596 409.681 369.877 412.099C371.204 414.517 371.939 417.315 372.081 420.492C372.129 421.25 372.153 422.27 372.153 423.55C372.153 424.783 372.129 425.802 372.081 426.608C371.939 429.738 371.228 432.535 369.948 435.001C368.667 437.419 366.818 439.316 364.4 440.691C361.982 442.066 358.971 442.754 355.367 442.754ZM355.367 437.277C358.307 437.277 360.654 436.352 362.408 434.503C364.163 432.607 365.111 429.856 365.253 426.253C365.301 425.541 365.325 424.641 365.325 423.55C365.325 422.459 365.301 421.559 365.253 420.847C365.111 417.244 364.163 414.517 362.408 412.668C360.654 410.771 358.307 409.823 355.367 409.823C352.427 409.823 350.057 410.771 348.255 412.668C346.5 414.517 345.576 417.244 345.481 420.847C345.433 421.559 345.41 422.459 345.41 423.55C345.41 424.641 345.433 425.541 345.481 426.253C345.576 429.856 346.5 432.607 348.255 434.503C350.057 436.352 352.427 437.277 355.367 437.277ZM385.976 442.042C385.502 442.042 385.099 441.9 384.767 441.616C384.483 441.284 384.34 440.881 384.34 440.406V410.748H378.295C377.821 410.748 377.418 410.605 377.086 410.321C376.801 409.989 376.659 409.586 376.659 409.112V406.693C376.659 406.219 376.801 405.84 377.086 405.555C377.418 405.224 377.821 405.058 378.295 405.058H384.34V401.501C384.34 399.083 384.743 396.973 385.549 395.171C386.356 393.322 387.636 391.9 389.39 390.904C391.192 389.908 393.587 389.41 396.574 389.41H407.527C408.001 389.41 408.38 389.576 408.665 389.908C408.997 390.193 409.163 390.572 409.163 391.046V393.464C409.163 393.938 408.997 394.342 408.665 394.673C408.38 394.958 408.001 395.1 407.527 395.1H396.716C394.487 395.1 392.97 395.693 392.164 396.878C391.358 398.016 390.955 399.676 390.955 401.857V405.058H407.527C408.001 405.058 408.38 405.224 408.665 405.555C408.997 405.84 409.163 406.219 409.163 406.693V440.406C409.163 440.881 408.997 441.284 408.665 441.616C408.38 441.9 408.001 442.042 407.527 442.042H404.255C403.734 442.042 403.331 441.9 403.046 441.616C402.762 441.284 402.619 440.881 402.619 440.406V410.748H390.955V440.406C390.955 440.881 390.789 441.284 390.457 441.616C390.173 441.9 389.793 442.042 389.319 442.042H385.976ZM421.384 442.042C420.91 442.042 420.507 441.9 420.175 441.616C419.89 441.284 419.748 440.881 419.748 440.406V393.18C419.748 392.706 419.89 392.326 420.175 392.042C420.507 391.71 420.91 391.544 421.384 391.544H424.727C425.248 391.544 425.651 391.71 425.936 392.042C426.22 392.326 426.363 392.706 426.363 393.18V440.406C426.363 440.881 426.22 441.284 425.936 441.616C425.651 441.9 425.248 442.042 424.727 442.042H421.384ZM451.766 442.754C446.835 442.754 442.923 441.26 440.03 438.273C437.138 435.238 435.549 431.113 435.265 425.897C435.218 425.281 435.194 424.498 435.194 423.55C435.194 422.554 435.218 421.748 435.265 421.132C435.455 417.765 436.237 414.825 437.612 412.312C438.987 409.752 440.86 407.784 443.231 406.409C445.649 405.034 448.47 404.346 451.695 404.346C455.298 404.346 458.309 405.105 460.728 406.622C463.193 408.14 465.066 410.297 466.346 413.095C467.627 415.892 468.267 419.164 468.267 422.91V424.119C468.267 424.641 468.101 425.044 467.769 425.328C467.484 425.613 467.105 425.755 466.631 425.755H442.022C442.022 425.802 442.022 425.897 442.022 426.039C442.022 426.182 442.022 426.3 442.022 426.395C442.117 428.339 442.543 430.165 443.302 431.872C444.061 433.531 445.151 434.882 446.574 435.926C448.044 436.969 449.751 437.49 451.695 437.49C453.402 437.49 454.824 437.23 455.962 436.708C457.1 436.186 458.025 435.617 458.736 435.001C459.447 434.337 459.921 433.816 460.159 433.436C460.585 432.867 460.917 432.535 461.154 432.441C461.391 432.298 461.771 432.227 462.292 432.227H465.777C466.204 432.227 466.56 432.369 466.844 432.654C467.176 432.891 467.318 433.247 467.271 433.721C467.224 434.432 466.844 435.309 466.133 436.352C465.422 437.348 464.402 438.344 463.075 439.34C461.794 440.335 460.182 441.165 458.238 441.829C456.342 442.445 454.184 442.754 451.766 442.754ZM442.022 420.847H461.51V420.634C461.51 418.5 461.107 416.603 460.301 414.944C459.542 413.284 458.428 411.98 456.958 411.032C455.488 410.036 453.734 409.538 451.695 409.538C449.656 409.538 447.901 410.036 446.432 411.032C445.009 411.98 443.918 413.284 443.16 414.944C442.401 416.603 442.022 418.5 442.022 420.634V420.847ZM478.407 442.042C477.933 442.042 477.53 441.9 477.198 441.616C476.913 441.284 476.771 440.881 476.771 440.406V406.765C476.771 406.29 476.913 405.887 477.198 405.555C477.53 405.224 477.933 405.058 478.407 405.058H481.679C482.153 405.058 482.556 405.224 482.888 405.555C483.22 405.887 483.386 406.29 483.386 406.765V409.894C484.334 408.282 485.638 407.073 487.298 406.267C488.957 405.461 490.972 405.058 493.343 405.058H496.117C496.591 405.058 496.97 405.224 497.255 405.555C497.587 405.84 497.753 406.219 497.753 406.693V409.61C497.753 410.084 497.587 410.463 497.255 410.748C496.97 411.032 496.591 411.174 496.117 411.174H491.85C489.289 411.174 487.274 411.933 485.804 413.45C484.334 414.92 483.599 416.935 483.599 419.496V440.406C483.599 440.881 483.433 441.284 483.101 441.616C482.769 441.9 482.366 442.042 481.892 442.042H478.407Z" fill="black"/>
<path id="Vector" d="M434 142.5L416.4 176.4L424 176.8C424 176.8 424.1 177.7 424.1 179.3L430.9 179.6C423.8 261 357.4 326.5 273.6 330.2C270.7 330.3 267.9 330.4 265 330.4V235H274.6H290.8C344.8 235 371.1 195.9 369.5 157.9C368 122.1 341.7 87.3 290.8 87.3H196.6L167.6 130.6H290.7C299.4 130.6 306.6 132.7 312.1 136.2C335.9 151.2 328.8 191.5 290.7 191.5H274.5H264.9V180.7H300.9V141.4H231H142.3H102.7C113.4 67.7 173.1 8.7 249 0.800003C245.4 0.800003 241.8 0.8 238.1 1C135.3 5.5 55.6 92.5 60.1 195.3C64.6 298.1 151.6 377.8 254.4 373.3C357 368.8 436.5 282.2 432.4 179.7L440.9 180C441 178.5 441.1 177.6 441.1 177.6L448.7 177.9L434 142.5ZM224.5 322.5V324.8C218.6 323.2 212.8 321.4 207.1 319.2V246.3H191.1V312C185.9 309.3 180.8 306.3 175.9 303.1V215.1H159.9V291.1C128 264.1 106.3 225.1 102.1 180.8H168.9H224.6V322.5H224.5Z" fill="url(#paint0_linear_231_96)"/>
</g>
<defs>
<linearGradient id="paint0_linear_231_96" x1="59.915" y1="187.044" x2="448.653" y2="187.044" gradientUnits="userSpaceOnUse">
<stop stop-color="#FFED00"/>
<stop offset="0.4061" stop-color="#F9C200"/>
<stop offset="0.7923" stop-color="#F59F00"/>
<stop offset="1" stop-color="#F39200"/>
</linearGradient>
</defs>
</svg>
