<svg width="792" height="270" viewBox="0 0 792 270" fill="none" xmlns="http://www.w3.org/2000/svg">
<path d="M310.784 178.516C310.292 178.516 309.873 178.368 309.528 178.073C309.233 177.728 309.085 177.31 309.085 176.817V133.387H294.904C294.412 133.387 293.993 133.24 293.649 132.944C293.353 132.6 293.205 132.181 293.205 131.689V128.586C293.205 128.045 293.353 127.626 293.649 127.331C293.993 126.986 294.412 126.814 294.904 126.814H330.505C331.046 126.814 331.465 126.986 331.76 127.331C332.105 127.626 332.277 128.045 332.277 128.586V131.689C332.277 132.181 332.105 132.6 331.76 132.944C331.465 133.24 331.046 133.387 330.505 133.387H316.397V176.817C316.397 177.31 316.225 177.728 315.88 178.073C315.585 178.368 315.166 178.516 314.625 178.516H310.784ZM335.309 178.516C334.817 178.516 334.398 178.368 334.054 178.073C333.758 177.728 333.61 177.31 333.61 176.817V141.881C333.61 141.389 333.758 140.97 334.054 140.626C334.398 140.281 334.817 140.109 335.309 140.109H338.707C339.199 140.109 339.618 140.281 339.962 140.626C340.307 140.97 340.479 141.389 340.479 141.881V145.131C341.464 143.457 342.818 142.201 344.542 141.364C346.265 140.527 348.358 140.109 350.82 140.109H353.7C354.193 140.109 354.587 140.281 354.882 140.626C355.227 140.921 355.399 141.315 355.399 141.807V144.836C355.399 145.328 355.227 145.722 354.882 146.017C354.587 146.313 354.193 146.461 353.7 146.461H349.269C346.61 146.461 344.517 147.248 342.991 148.824C341.464 150.351 340.701 152.443 340.701 155.102V176.817C340.701 177.31 340.529 177.728 340.184 178.073C339.839 178.368 339.421 178.516 338.928 178.516H335.309ZM371.801 179.255C369.339 179.255 367.099 178.762 365.08 177.777C363.061 176.792 361.436 175.463 360.205 173.789C358.974 172.115 358.359 170.219 358.359 168.102C358.359 164.704 359.737 161.996 362.495 159.977C365.252 157.958 368.847 156.629 373.278 155.989L384.284 154.438V152.296C384.284 149.932 383.594 148.086 382.215 146.756C380.886 145.427 378.695 144.762 375.642 144.762C373.475 144.762 371.703 145.205 370.324 146.091C368.945 146.978 367.985 148.11 367.443 149.489C367.148 150.227 366.631 150.597 365.892 150.597H362.569C362.027 150.597 361.609 150.449 361.313 150.154C361.067 149.809 360.944 149.415 360.944 148.972C360.944 148.233 361.215 147.322 361.756 146.239C362.347 145.156 363.233 144.097 364.415 143.063C365.597 142.029 367.099 141.167 368.921 140.478C370.792 139.739 373.057 139.37 375.716 139.37C378.67 139.37 381.157 139.764 383.176 140.552C385.195 141.29 386.77 142.3 387.903 143.58C389.084 144.86 389.922 146.313 390.414 147.938C390.956 149.563 391.226 151.212 391.226 152.886V176.817C391.226 177.31 391.054 177.728 390.709 178.073C390.414 178.368 390.02 178.516 389.528 178.516H386.13C385.588 178.516 385.17 178.368 384.874 178.073C384.579 177.728 384.431 177.31 384.431 176.817V173.641C383.791 174.527 382.929 175.414 381.846 176.3C380.763 177.137 379.409 177.851 377.784 178.442C376.159 178.984 374.165 179.255 371.801 179.255ZM373.352 173.715C375.371 173.715 377.218 173.296 378.892 172.459C380.566 171.573 381.871 170.219 382.806 168.397C383.791 166.575 384.284 164.286 384.284 161.528V159.46L375.716 160.716C372.22 161.208 369.585 162.045 367.813 163.227C366.04 164.359 365.154 165.812 365.154 167.585C365.154 168.963 365.548 170.12 366.336 171.056C367.173 171.942 368.207 172.607 369.438 173.05C370.718 173.493 372.023 173.715 373.352 173.715ZM415.878 179.255C413.17 179.255 410.831 178.787 408.861 177.851C406.891 176.866 405.267 175.561 403.986 173.937C402.755 172.262 401.82 170.367 401.18 168.249C400.589 166.132 400.244 163.892 400.146 161.528C400.096 160.74 400.072 160.002 400.072 159.312C400.072 158.623 400.096 157.884 400.146 157.096C400.244 154.782 400.589 152.566 401.18 150.449C401.82 148.332 402.755 146.436 403.986 144.762C405.267 143.088 406.891 141.783 408.861 140.847C410.831 139.862 413.17 139.37 415.878 139.37C418.783 139.37 421.196 139.887 423.116 140.921C425.036 141.955 426.612 143.235 427.843 144.762V127.774C427.843 127.282 427.991 126.888 428.286 126.592C428.631 126.248 429.05 126.075 429.542 126.075H433.087C433.58 126.075 433.974 126.248 434.269 126.592C434.614 126.888 434.786 127.282 434.786 127.774V176.817C434.786 177.31 434.614 177.728 434.269 178.073C433.974 178.368 433.58 178.516 433.087 178.516H429.764C429.222 178.516 428.803 178.368 428.508 178.073C428.212 177.728 428.065 177.31 428.065 176.817V173.715C426.834 175.291 425.233 176.62 423.264 177.703C421.294 178.737 418.832 179.255 415.878 179.255ZM417.429 173.272C419.891 173.272 421.86 172.706 423.338 171.573C424.815 170.441 425.923 169.013 426.661 167.289C427.4 165.517 427.794 163.719 427.843 161.897C427.892 161.11 427.917 160.174 427.917 159.091C427.917 157.958 427.892 156.998 427.843 156.21C427.794 154.487 427.375 152.788 426.588 151.114C425.849 149.44 424.716 148.061 423.19 146.978C421.713 145.894 419.792 145.353 417.429 145.353C414.918 145.353 412.923 145.919 411.446 147.051C409.969 148.135 408.91 149.587 408.27 151.409C407.63 153.182 407.261 155.102 407.162 157.17C407.113 158.598 407.113 160.026 407.162 161.454C407.261 163.522 407.63 165.467 408.27 167.289C408.91 169.062 409.969 170.514 411.446 171.647C412.923 172.73 414.918 173.272 417.429 173.272ZM447.47 178.516C446.977 178.516 446.559 178.368 446.214 178.073C445.919 177.728 445.771 177.31 445.771 176.817V141.807C445.771 141.315 445.919 140.921 446.214 140.626C446.559 140.281 446.977 140.109 447.47 140.109H451.015C451.507 140.109 451.901 140.281 452.197 140.626C452.541 140.921 452.714 141.315 452.714 141.807V176.817C452.714 177.31 452.541 177.728 452.197 178.073C451.901 178.368 451.507 178.516 451.015 178.516H447.47ZM446.879 132.944C446.386 132.944 445.968 132.796 445.623 132.501C445.328 132.156 445.18 131.738 445.18 131.245V127.257C445.18 126.765 445.328 126.346 445.623 126.001C445.968 125.657 446.386 125.484 446.879 125.484H451.532C452.024 125.484 452.443 125.657 452.788 126.001C453.132 126.346 453.305 126.765 453.305 127.257V131.245C453.305 131.738 453.132 132.156 452.788 132.501C452.443 132.796 452.024 132.944 451.532 132.944H446.879ZM466.007 178.516C465.514 178.516 465.096 178.368 464.751 178.073C464.456 177.728 464.308 177.31 464.308 176.817V141.807C464.308 141.315 464.456 140.921 464.751 140.626C465.096 140.281 465.514 140.109 466.007 140.109H469.478C469.971 140.109 470.365 140.281 470.66 140.626C471.005 140.921 471.177 141.315 471.177 141.807V145.057C472.457 143.383 474.058 142.029 475.978 140.995C477.948 139.912 480.459 139.37 483.512 139.37C486.712 139.37 489.421 140.084 491.636 141.512C493.901 142.891 495.6 144.836 496.733 147.347C497.914 149.809 498.505 152.689 498.505 155.989V176.817C498.505 177.31 498.333 177.728 497.988 178.073C497.693 178.368 497.299 178.516 496.807 178.516H493.114C492.621 178.516 492.203 178.368 491.858 178.073C491.562 177.728 491.415 177.31 491.415 176.817V156.358C491.415 152.911 490.578 150.227 488.904 148.307C487.229 146.338 484.767 145.353 481.518 145.353C478.465 145.353 476.003 146.338 474.131 148.307C472.31 150.227 471.399 152.911 471.399 156.358V176.817C471.399 177.31 471.226 177.728 470.882 178.073C470.586 178.368 470.192 178.516 469.7 178.516H466.007ZM524.832 194.765C521.484 194.765 518.727 194.322 516.56 193.436C514.443 192.549 512.769 191.466 511.538 190.186C510.356 188.955 509.494 187.699 508.952 186.419C508.46 185.188 508.189 184.203 508.14 183.465C508.091 182.972 508.239 182.554 508.583 182.209C508.977 181.864 509.396 181.692 509.839 181.692H513.384C513.827 181.692 514.197 181.79 514.492 181.987C514.787 182.184 515.034 182.603 515.231 183.243C515.526 183.982 515.969 184.794 516.56 185.68C517.151 186.616 518.062 187.404 519.293 188.044C520.524 188.733 522.247 189.078 524.463 189.078C526.777 189.078 528.722 188.758 530.298 188.118C531.874 187.478 533.056 186.394 533.843 184.868C534.68 183.341 535.099 181.224 535.099 178.516V173.493C533.917 175.02 532.366 176.3 530.446 177.334C528.525 178.319 526.113 178.811 523.207 178.811C520.45 178.811 518.087 178.344 516.117 177.408C514.147 176.423 512.522 175.118 511.242 173.493C510.011 171.819 509.076 169.924 508.435 167.806C507.845 165.689 507.5 163.473 507.401 161.159C507.352 159.78 507.352 158.426 507.401 157.096C507.5 154.782 507.845 152.566 508.435 150.449C509.076 148.332 510.011 146.436 511.242 144.762C512.522 143.088 514.147 141.783 516.117 140.847C518.087 139.862 520.45 139.37 523.207 139.37C526.162 139.37 528.599 139.912 530.52 140.995C532.489 142.078 534.09 143.432 535.321 145.057V141.881C535.321 141.389 535.468 140.97 535.764 140.626C536.108 140.281 536.527 140.109 537.019 140.109H540.417C540.909 140.109 541.328 140.281 541.673 140.626C542.017 140.97 542.19 141.389 542.19 141.881V177.703C542.19 181.003 541.623 183.932 540.491 186.493C539.407 189.053 537.586 191.072 535.025 192.549C532.514 194.027 529.116 194.765 524.832 194.765ZM524.685 172.903C527.147 172.903 529.116 172.336 530.594 171.204C532.12 170.071 533.228 168.643 533.917 166.92C534.656 165.196 535.05 163.448 535.099 161.676C535.148 160.986 535.173 160.149 535.173 159.165C535.173 158.131 535.148 157.269 535.099 156.579C535.05 154.807 534.656 153.059 533.917 151.335C533.228 149.612 532.12 148.184 530.594 147.051C529.116 145.919 527.147 145.353 524.685 145.353C522.223 145.353 520.253 145.919 518.776 147.051C517.299 148.135 516.24 149.587 515.6 151.409C514.96 153.182 514.59 155.102 514.492 157.17C514.443 158.451 514.443 159.755 514.492 161.085C514.59 163.153 514.96 165.098 515.6 166.92C516.24 168.693 517.299 170.145 518.776 171.278C520.253 172.361 522.223 172.903 524.685 172.903ZM555.83 178.516C555.288 178.516 554.87 178.368 554.574 178.073C554.279 177.728 554.131 177.31 554.131 176.817V128.586C554.131 128.045 554.279 127.626 554.574 127.331C554.87 126.986 555.288 126.814 555.83 126.814H574.59C578.234 126.814 581.386 127.405 584.045 128.586C586.753 129.768 588.845 131.541 590.323 133.904C591.8 136.219 592.538 139.124 592.538 142.62C592.538 146.116 591.8 149.021 590.323 151.335C588.845 153.65 586.753 155.398 584.045 156.579C581.386 157.761 578.234 158.352 574.59 158.352H561.517V176.817C561.517 177.31 561.345 177.728 561 178.073C560.705 178.368 560.286 178.516 559.745 178.516H555.83ZM561.443 152.148H574.221C577.865 152.148 580.598 151.335 582.42 149.71C584.242 148.086 585.152 145.722 585.152 142.62C585.152 139.567 584.266 137.203 582.493 135.529C580.721 133.855 577.963 133.018 574.221 133.018H561.443V152.148ZM602.259 178.516C601.766 178.516 601.348 178.368 601.003 178.073C600.708 177.728 600.56 177.31 600.56 176.817V141.881C600.56 141.389 600.708 140.97 601.003 140.626C601.348 140.281 601.766 140.109 602.259 140.109H605.656C606.149 140.109 606.567 140.281 606.912 140.626C607.256 140.97 607.429 141.389 607.429 141.881V145.131C608.414 143.457 609.768 142.201 611.491 141.364C613.214 140.527 615.307 140.109 617.769 140.109H620.65C621.142 140.109 621.536 140.281 621.832 140.626C622.176 140.921 622.349 141.315 622.349 141.807V144.836C622.349 145.328 622.176 145.722 621.832 146.017C621.536 146.313 621.142 146.461 620.65 146.461H616.218C613.559 146.461 611.466 147.248 609.94 148.824C608.414 150.351 607.65 152.443 607.65 155.102V176.817C607.65 177.31 607.478 177.728 607.133 178.073C606.789 178.368 606.37 178.516 605.878 178.516H602.259ZM643.629 179.255C639.887 179.255 636.76 178.541 634.249 177.113C631.737 175.685 629.817 173.715 628.488 171.204C627.158 168.643 626.419 165.738 626.272 162.488C626.223 161.651 626.198 160.593 626.198 159.312C626.198 157.983 626.223 156.924 626.272 156.136C626.419 152.837 627.158 149.932 628.488 147.421C629.866 144.91 631.811 142.94 634.323 141.512C636.834 140.084 639.936 139.37 643.629 139.37C647.322 139.37 650.424 140.084 652.935 141.512C655.446 142.94 657.367 144.91 658.696 147.421C660.075 149.932 660.838 152.837 660.986 156.136C661.035 156.924 661.06 157.983 661.06 159.312C661.06 160.593 661.035 161.651 660.986 162.488C660.838 165.738 660.1 168.643 658.77 171.204C657.441 173.715 655.52 175.685 653.009 177.113C650.498 178.541 647.371 179.255 643.629 179.255ZM643.629 173.567C646.682 173.567 649.119 172.607 650.941 170.687C652.763 168.717 653.748 165.861 653.895 162.119C653.945 161.38 653.969 160.445 653.969 159.312C653.969 158.18 653.945 157.244 653.895 156.506C653.748 152.763 652.763 149.932 650.941 148.012C649.119 146.042 646.682 145.057 643.629 145.057C640.576 145.057 638.114 146.042 636.243 148.012C634.421 149.932 633.461 152.763 633.362 156.506C633.313 157.244 633.288 158.18 633.288 159.312C633.288 160.445 633.313 161.38 633.362 162.119C633.461 165.861 634.421 168.717 636.243 170.687C638.114 172.607 640.576 173.567 643.629 173.567ZM675.415 178.516C674.923 178.516 674.504 178.368 674.16 178.073C673.864 177.728 673.716 177.31 673.716 176.817V146.017H667.438C666.946 146.017 666.527 145.87 666.183 145.574C665.887 145.23 665.74 144.811 665.74 144.319V141.807C665.74 141.315 665.887 140.921 666.183 140.626C666.527 140.281 666.946 140.109 667.438 140.109H673.716V136.416C673.716 133.904 674.135 131.713 674.972 129.842C675.809 127.922 677.139 126.445 678.961 125.41C680.832 124.376 683.318 123.859 686.42 123.859H697.795C698.287 123.859 698.681 124.032 698.977 124.376C699.321 124.672 699.494 125.066 699.494 125.558V128.069C699.494 128.562 699.321 128.98 698.977 129.325C698.681 129.621 698.287 129.768 697.795 129.768H686.568C684.254 129.768 682.678 130.384 681.841 131.615C681.004 132.796 680.585 134.52 680.585 136.785V140.109H697.795C698.287 140.109 698.681 140.281 698.977 140.626C699.321 140.921 699.494 141.315 699.494 141.807V176.817C699.494 177.31 699.321 177.728 698.977 178.073C698.681 178.368 698.287 178.516 697.795 178.516H694.397C693.856 178.516 693.437 178.368 693.142 178.073C692.846 177.728 692.699 177.31 692.699 176.817V146.017H680.585V176.817C680.585 177.31 680.413 177.728 680.068 178.073C679.773 178.368 679.379 178.516 678.887 178.516H675.415ZM712.185 178.516C711.693 178.516 711.274 178.368 710.929 178.073C710.634 177.728 710.486 177.31 710.486 176.817V127.774C710.486 127.282 710.634 126.888 710.929 126.592C711.274 126.248 711.693 126.075 712.185 126.075H715.656C716.198 126.075 716.617 126.248 716.912 126.592C717.207 126.888 717.355 127.282 717.355 127.774V176.817C717.355 177.31 717.207 177.728 716.912 178.073C716.617 178.368 716.198 178.516 715.656 178.516H712.185ZM743.735 179.255C738.614 179.255 734.552 177.703 731.548 174.601C728.545 171.45 726.895 167.166 726.6 161.75C726.551 161.11 726.526 160.297 726.526 159.312C726.526 158.278 726.551 157.441 726.6 156.801C726.797 153.305 727.609 150.252 729.037 147.642C730.465 144.983 732.41 142.94 734.872 141.512C737.383 140.084 740.313 139.37 743.661 139.37C747.404 139.37 750.53 140.158 753.042 141.734C755.602 143.309 757.547 145.55 758.877 148.455C760.206 151.36 760.871 154.758 760.871 158.648V159.903C760.871 160.445 760.698 160.863 760.354 161.159C760.058 161.454 759.664 161.602 759.172 161.602H733.616C733.616 161.651 733.616 161.75 733.616 161.897C733.616 162.045 733.616 162.168 733.616 162.267C733.715 164.286 734.158 166.181 734.946 167.954C735.734 169.677 736.866 171.081 738.343 172.164C739.87 173.247 741.643 173.789 743.661 173.789C745.434 173.789 746.911 173.518 748.093 172.976C749.275 172.435 750.235 171.844 750.974 171.204C751.712 170.514 752.205 169.973 752.451 169.579C752.894 168.988 753.239 168.643 753.485 168.545C753.731 168.397 754.125 168.323 754.667 168.323H758.286C758.729 168.323 759.098 168.471 759.394 168.766C759.738 169.013 759.886 169.382 759.837 169.874C759.788 170.613 759.394 171.524 758.655 172.607C757.916 173.641 756.858 174.675 755.479 175.709C754.15 176.743 752.475 177.605 750.457 178.294C748.487 178.934 746.247 179.255 743.735 179.255ZM733.616 156.506H753.854V156.284C753.854 154.068 753.436 152.099 752.598 150.375C751.811 148.652 750.654 147.298 749.127 146.313C747.601 145.279 745.779 144.762 743.661 144.762C741.544 144.762 739.722 145.279 738.196 146.313C736.719 147.298 735.586 148.652 734.798 150.375C734.01 152.099 733.616 154.068 733.616 156.284V156.506ZM771.401 178.516C770.909 178.516 770.49 178.368 770.145 178.073C769.85 177.728 769.702 177.31 769.702 176.817V141.881C769.702 141.389 769.85 140.97 770.145 140.626C770.49 140.281 770.909 140.109 771.401 140.109H774.799C775.291 140.109 775.71 140.281 776.054 140.626C776.399 140.97 776.571 141.389 776.571 141.881V145.131C777.556 143.457 778.91 142.201 780.634 141.364C782.357 140.527 784.45 140.109 786.912 140.109H789.792C790.285 140.109 790.679 140.281 790.974 140.626C791.319 140.921 791.491 141.315 791.491 141.807V144.836C791.491 145.328 791.319 145.722 790.974 146.017C790.679 146.313 790.285 146.461 789.792 146.461H785.361C782.702 146.461 780.609 147.248 779.083 148.824C777.556 150.351 776.793 152.443 776.793 155.102V176.817C776.793 177.31 776.621 177.728 776.276 178.073C775.931 178.368 775.513 178.516 775.02 178.516H771.401Z" fill="white"/>
<path d="M269.8 102.8L257.2 127.2L262.7 127.5C262.7 127.5 262.7 128.1 262.8 129.3L267.7 129.5C262.6 188.1 214.7 235.3 154.4 238C152.3 238.1 150.3 238.1 148.2 238.1V169.5H155.1H166.8C205.7 169.5 224.6 141.3 223.5 114C222.4 88.2 203.5 63.2 166.8 63.2H99L78 94.3H166.7C173 94.3 178.1 95.8 182.1 98.3C199.3 109.1 194.2 138.2 166.7 138.2H155H148.1V130.4H174.1V102.1H123.8H59.8H31.3C38.9 48.9 81.9 6.39995 136.5 0.699951C133.9 0.699951 131.3 0.699957 128.7 0.799957C54.6 4.09995 -2.80005 66.7 0.499954 140.8C3.79995 214.9 66.4 272.3 140.5 269C214.4 265.8 271.7 203.3 268.7 129.5L274.8 129.7C274.9 128.6 274.9 128 274.9 128L280.4 128.2L269.8 102.8ZM118.9 232.5V234.2C114.6 233.1 110.4 231.7 106.4 230.1V177.6H94.9V225C91.1 223.1 87.5 220.9 83.9 218.6V155.2H72.3V210C49.3 190.6 33.7 162.5 30.7 130.5H78.8H118.9V232.5Z" fill="url(#paint0_linear_402_3)" stroke="black"/>
<defs>
<linearGradient id="paint0_linear_402_3" x1="0.312054" y1="134.944" x2="280.369" y2="134.944" gradientUnits="userSpaceOnUse">
<stop stop-color="#FFED00"/>
<stop offset="0.4061" stop-color="#F9C200"/>
<stop offset="0.7923" stop-color="#F59F00"/>
<stop offset="1" stop-color="#F39200"/>
</linearGradient>
</defs>
</svg>
