<svg width="722" height="721" viewBox="0 0 722 721" fill="none" xmlns="http://www.w3.org/2000/svg">
<path d="M709.4 721H12.3999C5.7999 721 0.399902 715.6 0.399902 709V12C0.399902 5.4 5.7999 0 12.3999 0H709.4C716 0 721.4 5.4 721.4 12V709C721.4 715.6 716 721 709.4 721Z" fill="#FEC412"/>
<path d="M666.4 678H55.3999C48.7999 678 43.3999 672.6 43.3999 666V55C43.3999 48.4 48.7999 43 55.3999 43H666.4C673 43 678.4 48.4 678.4 55V666C678.4 672.6 673 678 666.4 678Z" stroke="black" stroke-width="2" stroke-miterlimit="10"/>
<path d="M595.5 451.8H562.1V259.8C562.1 235.7 542.5 216 518.3 216H203.5C179.4 216 159.7 235.6 159.7 259.8V451.8H126.3C119.6 451.8 114.1 457.3 114.1 464V473.3C114.1 490.7 128.3 504.9 145.7 504.9H576.1C593.5 504.9 607.7 490.7 607.7 473.3V464C607.7 457.3 602.3 451.8 595.5 451.8ZM353.7 235.6H368.1C373 235.6 377 239.6 377 244.5C377 249.4 373 253.4 368.1 253.4H353.7C348.8 253.4 344.8 249.4 344.8 244.5C344.8 239.6 348.8 235.6 353.7 235.6ZM544.2 451.8H177.6V274.2H544.2V451.8Z" fill="black"/>
<path d="M391 314.3H514C518.9 314.3 522.9 310.3 522.9 305.4C522.9 300.5 518.9 296.5 514 296.5H391C386.1 296.5 382.1 300.5 382.1 305.4C382.1 310.3 386.1 314.3 391 314.3Z" fill="white"/>
<path d="M391 350H497.1C502 350 506 346 506 341.1C506 336.2 502 332.2 497.1 332.2H391C386.1 332.2 382.1 336.2 382.1 341.1C382.1 346 386.1 350 391 350Z" fill="white"/>
<path d="M391 391.6H514C518.9 391.6 522.9 387.6 522.9 382.7C522.9 377.8 518.9 373.8 514 373.8H391C386.1 373.8 382.1 377.8 382.1 382.7C382.1 387.6 386.1 391.6 391 391.6Z" fill="white"/>
<path d="M391 427.3H448.6C453.5 427.3 457.5 423.3 457.5 418.4C457.5 413.5 453.5 409.5 448.6 409.5H391C386.1 409.5 382.1 413.5 382.1 418.4C382.1 423.3 386.1 427.3 391 427.3Z" fill="white"/>
<path d="M340.7 296.9H203.8C200.2 296.9 197.2 299.9 197.2 303.5V403.5C197.2 407.1 200.2 410.1 203.8 410.1H272.9L301.5 438.7C302.8 440 304.4 440.6 306.2 440.6C307.1 440.6 307.9 440.4 308.7 440.1C311.2 439.1 312.8 436.7 312.8 434V410H340.8C344.4 410 347.4 407 347.4 403.4V303.4C347.2 299.8 344.3 296.9 340.7 296.9ZM273.6 375.6H246.4C242.9 375.6 240.1 372.8 240.1 369.3C240.1 365.8 242.9 363 246.4 363H273.6C277.1 363 279.9 365.8 279.9 369.3C279.9 372.8 277.1 375.6 273.6 375.6ZM297.8 345.4H246.5C243 345.4 240.2 342.6 240.2 339.1C240.2 335.6 243 332.8 246.5 332.8H297.8C301.3 332.8 304.1 335.6 304.1 339.1C304.1 342.6 301.2 345.4 297.8 345.4Z" fill="white"/>
</svg>
