<svg width="722" height="722" viewBox="0 0 722 722" fill="none" xmlns="http://www.w3.org/2000/svg">
<path d="M709.8 721.4H12.8C6.20005 721.4 0.800049 716 0.800049 709.4V12.4C0.800049 5.80002 6.20005 0.400024 12.8 0.400024H709.8C716.4 0.400024 721.8 5.80002 721.8 12.4V709.4C721.8 716 716.4 721.4 709.8 721.4Z" fill="#FEC412"/>
<path d="M149.6 367.7V408.8C149.6 414.4 154.1 418.9 159.7 418.9C165.3 418.9 169.8 414.4 169.8 408.8V367.7C169.8 362.1 165.3 357.6 159.7 357.6C154.2 357.6 149.6 362.1 149.6 367.7Z" fill="white"/>
<path d="M177.9 347.1V408.8C177.9 414.4 182.4 418.9 188 418.9C193.6 418.9 198.1 414.4 198.1 408.8V347.1C198.1 341.5 193.6 337 188 337C182.4 337 177.9 341.5 177.9 347.1Z" fill="white"/>
<path d="M206.1 326.6V408.9C206.1 414.5 210.6 419 216.2 419C221.8 419 226.3 414.5 226.3 408.9V326.6C226.3 321 221.8 316.5 216.2 316.5C210.6 316.4 206.1 321 206.1 326.6Z" fill="white"/>
<path d="M234.3 357.4V408.8C234.3 414.4 238.8 418.9 244.4 418.9C250 418.9 254.5 414.4 254.5 408.8V357.4C254.5 351.8 250 347.3 244.4 347.3C238.8 347.3 234.3 351.8 234.3 357.4Z" fill="white"/>
<path d="M262.6 340.3V408.9C262.6 414.5 267.1 419 272.7 419C278.3 419 282.8 414.5 282.8 408.9V340.3C282.8 334.7 278.3 330.2 272.7 330.2C267.1 330.2 262.6 334.7 262.6 340.3Z" fill="white"/>
<path d="M290.8 319.7V408.8C290.8 414.4 295.3 418.9 300.9 418.9C306.5 418.9 311 414.4 311 408.8V319.7C311 314.1 306.5 309.6 300.9 309.6C295.3 309.6 290.8 314.1 290.8 319.7Z" fill="white"/>
<path d="M329.1 289C323.5 289 319 293.5 319 299.1V408.8C319 414.4 323.5 418.9 329.1 418.9C334.7 418.9 339.2 414.4 339.2 408.8V299.1C339.2 293.6 334.7 289 329.1 289Z" fill="white"/>
<path d="M341 249.4C337.7 244.9 331.4 243.9 326.9 247.2L246.3 306.1L224.1 278.9C220.7 274.7 214.7 274 210.3 277.1L147.5 323C143 326.3 142 332.6 145.3 337.1C147.3 339.8 150.4 341.2 153.5 341.2C155.6 341.2 157.7 340.6 159.5 339.3L214.6 299.1L236.8 326.3C240.2 330.5 246.2 331.2 250.6 328.1L339 263.6C343.3 260.2 344.3 253.9 341 249.4Z" fill="white"/>
<path d="M527.5 402.5C524.2 397.3 521.4 381.5 520.9 365.5C542.8 349.1 559.8 322.3 568.5 294.9C572.4 292.9 575.4 289.3 576.4 284.8C590.8 218.9 587.8 176.2 567 150.3C550.2 129.5 523.1 119.7 479.5 118.9C478.4 118.8 477.2 118.8 476.1 118.9C475 118.9 473.8 118.8 472.7 118.9C429.2 119.7 402.2 129.4 385.6 150.1C364.9 175.8 361.9 218.5 376.3 284.3C377.3 288.8 380.2 292.3 384 294.3C392.7 321.9 409.7 349 431.8 365.5C431.3 381.5 428.5 397.3 425.2 402.5C346.9 419.9 311.8 461.3 311.8 536.4V565.4C311.8 585 327.7 600.9 347.3 600.9H365.9C371.1 600.9 375.3 596.7 375.3 591.5V517.9C375.3 515.1 377.6 512.8 380.4 512.8C383.2 512.8 385.5 515.1 385.5 517.9V591.5C385.5 596.7 389.7 600.9 394.9 600.9H558C563.2 600.9 567.4 596.7 567.4 591.5V517.9C567.4 515.1 569.7 512.8 572.5 512.8C575.3 512.8 577.6 515.1 577.6 517.9V591.5C577.6 596.7 581.8 600.9 587 600.9H605.6C625.2 600.9 641.1 585 641.1 565.4V536.4C640.9 461.3 605.8 419.9 527.5 402.5ZM476.3 431.1L444.3 408.9C448.6 399.5 450.5 386.9 451.4 376.6C459.3 379.7 467.7 381.5 476.4 381.5C485.1 381.5 493.4 379.7 501.4 376.6C502.3 386.9 504.2 399.4 508.5 408.9L476.3 431.1ZM476.3 361.3C443.3 361.3 414.9 325 403.3 288.9C404.1 287.6 404.8 286.1 405.2 284.5L418.9 221.1C419.5 221 420.1 221.1 420.7 221.4L475.3 250.2C479 252.2 483.5 251.6 486.7 248.9C489.9 246.1 491 241.7 489.5 237.8L481.6 216.7C494.3 222.5 515.4 230.6 535.8 231.1C536.8 236.4 542.9 268.6 547.6 285.6C548 286.9 548.5 288.1 549.2 289.3C537.5 325.2 509.1 361.3 476.3 361.3Z" fill="black"/>
<path d="M310.9 455.3H101.9V203.8C101.9 194.9 109.1 187.7 118 187.7H209.3V188.5C209.3 198.9 217.7 207.3 228.1 207.3H349.5C352.1 207.3 354.2 205.2 354.4 202.6C355.6 183.1 359.9 166.9 367.2 153.5C368.6 151 366.7 147.8 363.7 147.8H228C217.6 147.8 209.2 156.2 209.2 166.6V167.4H118C98 167.4 81.7 183.6 81.7 203.7V471.8C81.7 491.8 97.9 508.1 118 508.1H265.3L188.2 585.2C184.4 589 183.6 595.3 187.1 599.4C189.1 601.8 192 603 194.8 603C197.4 603 200 602 201.9 600L293.8 508.1H300C300 508.1 307.1 474.7 314.3 460.9C315.6 458.4 313.9 455.3 310.9 455.3Z" fill="black"/>
<path d="M666.8 678.4H55.8C49.2 678.4 43.8 673 43.8 666.4V55.4C43.8 48.8 49.2 43.4 55.8 43.4H666.8C673.4 43.4 678.8 48.8 678.8 55.4V666.4C678.8 673 673.4 678.4 666.8 678.4Z" stroke="black" stroke-width="2" stroke-miterlimit="10"/>
</svg>
