<svg width="722" height="722" viewBox="0 0 722 722" fill="none" xmlns="http://www.w3.org/2000/svg">
<path d="M709.2 721.2H12.2C5.59995 721.2 0.199951 715.8 0.199951 709.2V12.2C0.199951 5.60001 5.59995 0.200012 12.2 0.200012H709.2C715.8 0.200012 721.2 5.60001 721.2 12.2V709.2C721.2 715.8 715.8 721.2 709.2 721.2Z" fill="#FEC412"/>
<path d="M666.3 678.2H55.3C48.7 678.2 43.3 672.8 43.3 666.2V55.2C43.3 48.6 48.7 43.2 55.3 43.2H666.3C672.9 43.2 678.3 48.6 678.3 55.2V666.2C678.3 672.8 672.9 678.2 666.3 678.2Z" stroke="black" stroke-width="2" stroke-miterlimit="10"/>
<path d="M550 413.1C549.9 412.6 549.7 412.1 549.6 411.6C549.5 411.4 549.5 411.1 549.4 410.9C549.2 410.4 548.9 409.9 548.6 409.4C548.5 409.2 548.4 409.1 548.3 408.9C547.4 407.6 546.3 406.5 545 405.6C544.8 405.5 544.6 405.4 544.3 405.2C543.9 404.9 543.4 404.7 543 404.5C542.7 404.4 542.3 404.3 542 404.2C541.6 404.1 541.3 403.9 540.9 403.9C540.2 403.8 539.5 403.7 538.7 403.7H538.6H498.3C491.8 403.7 486.6 408.9 486.6 415.4C486.6 421.9 491.8 427.1 498.3 427.1H510.3L468.8 468.6L441.8 441.6C437.2 437 429.8 437 425.2 441.6L396.2 470.6C391.6 475.2 391.6 482.6 396.2 487.2C400.8 491.8 408.2 491.8 412.8 487.2L433.6 466.4L460.6 493.4C462.9 495.7 465.9 496.8 468.9 496.8C471.9 496.8 474.9 495.7 477.2 493.4L527 443.6V455.6C527 462.1 532.2 467.3 538.7 467.3C545.2 467.3 550.4 462.1 550.4 455.6V415.3C550.4 414.9 550.3 414.5 550.3 414.1C550 413.9 550 413.5 550 413.1Z" fill="white"/>
<path d="M236.1 349.5C230.4 349.5 225.9 354.1 225.9 359.7V403.7C225.9 409.4 230.5 413.9 236.1 413.9H259.8C265.5 413.9 270 409.3 270 403.7V359.7C270 354 265.4 349.5 259.8 349.5H236.1Z" fill="black"/>
<path d="M297 296.7C291.3 296.7 286.8 301.3 286.8 306.9V403.8C286.8 409.5 291.4 414 297 414H320.7C326.4 414 330.9 409.4 330.9 403.8V307C330.9 301.3 326.3 296.8 320.7 296.8H297V296.7Z" fill="black"/>
<path d="M480.4 326.1C470.9 326.1 461.7 327.2 452.9 329.2V278.5C452.9 272.8 448.3 268.3 442.7 268.3H419C413.3 268.3 408.8 272.9 408.8 278.5V348.6C402.8 352.7 397.2 357.4 392.1 362.4V331.3C392.1 325.6 387.5 321.1 381.9 321.1H358C352.3 321.1 347.8 325.7 347.8 331.3V403.8C347.8 409.5 352.4 414 358 414H360.1C356.2 426.1 354.1 439 354.1 452.4C354.1 522.1 410.8 578.7 480.4 578.7C550.1 578.7 606.7 522 606.7 452.4C606.8 382.8 550.1 326.1 480.4 326.1ZM480.4 555.4C423.7 555.4 377.5 509.2 377.5 452.5C377.5 395.8 423.7 349.6 480.4 349.6C537.1 349.6 583.3 395.8 583.3 452.5C583.3 509.2 537.2 555.4 480.4 555.4Z" fill="black"/>
<path d="M312.4 201.4C322.5 199.3 332.9 198.3 343.4 198.3C412.3 198.3 473.1 244.7 491.1 311.2C493.2 319 500.3 324.2 508 324.2C509.5 324.2 511.1 324 512.6 323.6C522 321.1 527.5 311.4 525 302C502.8 220.3 428.1 163.2 343.3 163.2C330.5 163.2 317.7 164.5 305.2 167.1C295.7 169.1 289.6 178.3 291.5 187.9C293.6 197.2 302.9 203.4 312.4 201.4Z" fill="black"/>
<path d="M347.2 504.4C346 504.4 344.7 504.4 343.5 504.4C259.1 504.4 190.4 435.7 190.4 351.3C190.4 349 190.5 346.6 190.6 344.3C191 334.6 183.5 326.4 173.8 326C164 325.6 155.9 333.1 155.5 342.8C155.4 345.6 155.3 348.5 155.3 351.3C155.3 455.1 239.7 539.5 343.5 539.5C345 539.5 346.6 539.5 348.1 539.4C357.8 539.2 365.5 531.1 365.2 521.4C364.9 511.8 357 503.9 347.2 504.4Z" fill="black"/>
<path d="M297.7 234C297.7 231.8 297.6 229.6 297.5 227.4C297 220.9 291.4 216.2 285 216.6C278.5 217.1 273.7 222.7 274.2 229.1C274.3 230.7 274.4 232.4 274.4 234.1C274.4 271.6 243.9 302.1 206.4 302.1C168.9 302.1 138.4 271.6 138.4 234.1C138.4 196.6 168.9 166.1 206.4 166.1C222.5 166.1 238.2 171.9 250.5 182.3C255.4 186.5 262.8 185.9 267 181C271.2 176.1 270.6 168.7 265.7 164.5C249.2 150.4 228.1 142.7 206.4 142.7C156 142.7 115 183.7 115 234.1C115 284.5 156 325.5 206.4 325.5C256.7 325.5 297.7 284.4 297.7 234Z" fill="black"/>
<path d="M207.1 249.8L177.2 219.9C172.6 215.3 165.2 215.3 160.6 219.9C156 224.5 156 231.9 160.6 236.5L198.8 274.7C201.1 277 204.1 278.1 207.1 278.1C210.1 278.1 213.1 277 215.4 274.7L285 205.1C289.6 200.5 289.6 193.1 285 188.5C280.4 183.9 273 183.9 268.4 188.5L207.1 249.8Z" fill="white"/>
</svg>
