<svg width="722" height="722" viewBox="0 0 722 722" fill="none" xmlns="http://www.w3.org/2000/svg">
<path d="M709.2 721.3H12.2C5.59995 721.3 0.199951 715.9 0.199951 709.3V12.3C0.199951 5.69999 5.59995 0.299988 12.2 0.299988H709.2C715.8 0.299988 721.2 5.69999 721.2 12.3V709.3C721.2 715.9 715.8 721.3 709.2 721.3Z" fill="#FEC412"/>
<path d="M666.2 678.3H55.2C48.6 678.3 43.2 672.9 43.2 666.3V55.3C43.2 48.7 48.6 43.3 55.2 43.3H666.2C672.8 43.3 678.2 48.7 678.2 55.3V666.3C678.2 672.9 672.8 678.3 666.2 678.3Z" stroke="black" stroke-width="2" stroke-miterlimit="10"/>
<path d="M626.4 467.6C626.4 467.5 626.3 467.4 626.3 467.3C626.2 467 626.1 466.7 626 466.4C625.9 466 612 430.3 604.8 416.3C604.3 415.1 603.6 414.1 602.7 412.7L602.3 412.1C598.4 406 589.9 404.6 583.9 406.8C580.5 408 577.9 410.1 576.1 413.1C571.5 406 563 403.1 554.9 406.1C550.5 407.7 547 411 545 415.4C540 409.6 532.1 407.4 524.7 410.2C519.5 412.1 515.7 416.1 513.9 421L495.9 372.4C494.1 367.4 490.7 363.3 486.4 360.9C482 358.4 477.2 357.9 472.9 359.5C464 362.8 459.9 373.9 463.8 384.3L495.5 470C493.6 467.8 492.1 465.9 490.7 464.4C480.1 452.4 466.3 447.6 457.8 452.9C455.3 454.5 453.8 456.6 453.3 459.1C452 466 458.4 474.7 465.2 483.8C467.3 486.6 469.3 489.4 471.1 492C478.2 502.6 493.4 523.8 498 528.9C506.1 537.9 513.3 544.4 519.4 548.3C531.5 557.3 545.1 561.8 559.5 561.8C568.5 561.8 577.8 560 587.3 556.5C616.6 545.7 644.3 516 626.4 467.6Z" fill="black"/>
<path d="M433.9 468.7H369.4C362 468.7 355 470.2 348.6 472.9V213.4C348.6 201.9 357.9 192.6 369.4 192.6H542.3V379.7C542.3 388.8 549.6 396.1 558.7 396.1C567.8 396.1 575.1 388.8 575.1 379.7V176.2C575.1 167.1 567.8 159.8 558.7 159.8H369.4C355 159.8 341.9 165.6 332.2 174.9C322.6 165.6 309.5 159.8 295 159.8H105.7C96.6 159.8 89.3 167.1 89.3 176.2V485.1C89.3 494.2 96.6 501.5 105.7 501.5H295C306.5 501.5 315.8 510.8 315.8 522.3C315.8 531.4 323.1 538.7 332.2 538.7C341.3 538.7 348.6 531.4 348.6 522.3C348.6 510.8 357.9 501.5 369.4 501.5H433.9C443 501.5 450.3 494.2 450.3 485.1C450.3 476.1 443 468.7 433.9 468.7ZM315.9 472.9C309.5 470.2 302.5 468.7 295.1 468.7H122.2V192.6H295.1C306.6 192.6 315.9 201.9 315.9 213.4V472.9Z" fill="black"/>
<path d="M281 225.1H156.7C151.3 225.1 146.9 229.5 146.9 234.9C146.9 240.3 151.3 244.7 156.7 244.7H281C286.4 244.7 290.8 240.3 290.8 234.9C290.8 229.5 286.4 225.1 281 225.1Z" fill="white"/>
<path d="M281 271.2H156.7C151.3 271.2 146.9 275.6 146.9 281C146.9 286.4 151.3 290.8 156.7 290.8H281C286.4 290.8 290.8 286.4 290.8 281C290.8 275.6 286.4 271.2 281 271.2Z" fill="white"/>
<path d="M281 317.2H156.7C151.3 317.2 146.9 321.6 146.9 327C146.9 332.4 151.3 336.8 156.7 336.8H281C286.4 336.8 290.8 332.4 290.8 327C290.8 321.6 286.4 317.2 281 317.2Z" fill="white"/>
<path d="M507.3 225.1H383C377.6 225.1 373.2 229.5 373.2 234.9C373.2 240.3 377.6 244.7 383 244.7H507.3C512.7 244.7 517.1 240.3 517.1 234.9C517.1 229.5 512.7 225.1 507.3 225.1Z" fill="white"/>
<path d="M517.1 281C517.1 275.6 512.7 271.2 507.3 271.2H383C377.6 271.2 373.2 275.6 373.2 281C373.2 286.4 377.6 290.8 383 290.8H507.3C512.7 290.8 517.1 286.4 517.1 281Z" fill="white"/>
<path d="M383 317.2C377.6 317.2 373.2 321.6 373.2 327C373.2 332.4 377.6 336.8 383 336.8H448.1C453.5 336.8 457.9 332.4 457.9 327C457.9 321.6 453.5 317.2 448.1 317.2H383Z" fill="white"/>
<path d="M281 363.3H156.7C151.3 363.3 146.9 367.7 146.9 373.1C146.9 378.5 151.3 382.9 156.7 382.9H281C286.4 382.9 290.8 378.5 290.8 373.1C290.8 367.7 286.4 363.3 281 363.3Z" fill="white"/>
</svg>
