<?xml version="1.0" standalone="no"?>
<!DOCTYPE svg PUBLIC "-//W3C//DTD SVG 20010904//EN"
 "http://www.w3.org/TR/2001/REC-SVG-20010904/DTD/svg10.dtd">
<svg version="1.0" xmlns="http://www.w3.org/2000/svg"
 width="512.000000pt" height="512.000000pt" viewBox="0 0 512.000000 512.000000"
 preserveAspectRatio="xMidYMid meet">
<metadata>
Created by potrace 1.14, written by Peter Selinger 2001-2017
</metadata>
<g transform="translate(0.000000,512.000000) scale(0.100000,-0.100000)"
fill="#000000" stroke="none">
<path d="M0 2560 l0 -2560 2560 0 2560 0 0 2560 0 2560 -2560 0 -2560 0 0
-2560z m2535 2189 c-103 -15 -296 -67 -405 -110 -249 -96 -450 -227 -644 -417
-292 -287 -477 -639 -550 -1049 l-6 -33 1084 0 c596 0 1111 -3 1145 -6 l61 -7
0 -228 0 -229 -205 0 -205 0 0 -56 0 -56 178 4 c172 3 179 4 236 32 33 16 79
48 102 72 183 182 103 487 -147 565 -57 18 -105 19 -772 20 -392 0 -733 4
-760 7 l-47 7 167 248 168 248 675 -3 675 -4 97 -26 c390 -107 632 -421 632
-823 0 -352 -192 -649 -503 -780 -138 -58 -197 -67 -458 -72 l-243 -5 0 -549
0 -549 49 0 c86 0 253 20 366 45 701 152 1253 680 1440 1378 33 123 33 127
-10 127 -24 0 -35 5 -35 15 0 11 -11 15 -40 15 -22 0 -40 5 -40 11 0 6 45 97
99 202 79 151 102 187 107 172 5 -11 42 -103 85 -205 l76 -185 -43 -3 c-32 -2
-44 -7 -44 -19 0 -13 -8 -14 -40 -9 l-40 6 0 -34 c0 -75 -32 -273 -64 -399
-112 -433 -359 -827 -696 -1109 -323 -271 -702 -438 -1114 -493 -179 -24 -548
-17 -721 14 -308 55 -569 158 -825 325 -128 85 -206 148 -328 269 -400 395
-620 896 -639 1457 -22 650 229 1241 717 1683 378 343 894 544 1400 544 110 1
118 0 65 -8z"/>
<path d="M925 2623 c58 -417 254 -825 524 -1088 l51 -49 0 397 0 397 135 0
135 0 0 -507 0 -508 44 -27 c24 -16 46 -28 50 -28 3 0 6 160 6 355 l0 355 135
0 135 0 0 -423 0 -424 41 -12 c23 -7 47 -15 55 -18 12 -4 14 117 14 811 l0
816 -666 0 -665 0 6 -47z"/>
</g>
</svg>
