<svg width="639" height="730" viewBox="0 0 639 730" fill="none" xmlns="http://www.w3.org/2000/svg">
<path fill-rule="evenodd" clip-rule="evenodd" d="M0.400024 319.8C0.400024 416.6 43.5 503.2 111.7 561.8C127.9 575.8 138.8 595.4 144.2 616.1C155.7 660.1 197.5 671.6 232.6 646.9C265.2 623.9 300.4 636.2 292.1 674C275.8 748.8 394 748.4 376.9 672.3C371.4 648.2 380.9 635.2 405.2 627C411.7 625.2 418.2 623.2 424.7 620.8C549.1 577.3 638.4 458.9 638.4 319.7C638.4 143.5 495.7 0.799988 319.5 0.799988C143.3 0.799988 0.400024 143.6 0.400024 319.8ZM299.5 648.2C297.2 642 301.3 639.4 303.8 645.4C315 673.4 294.1 697.2 329.3 712.7C335.5 715.4 331.3 723.5 325.3 720.9C281.2 701.3 308.9 671.5 299.5 648.2ZM156.5 607.6C159.8 620.8 168.8 630.9 180.3 638.4C185.8 641.9 180.3 650.4 174.8 646.7C161.1 637.9 155.8 625.7 151.8 610.1C150.1 603.7 154.8 601.2 156.5 607.6Z" fill="white"/>
<path d="M319.4 599.2C475.641 599.2 602.3 472.541 602.3 316.3C602.3 160.059 475.641 33.4 319.4 33.4C163.159 33.4 36.5 160.059 36.5 316.3C36.5 472.541 163.159 599.2 319.4 599.2Z" fill="#FEC412"/>
<path d="M517.1 386.2H488.9V224.4C488.9 204.1 472.4 187.5 452 187.5H186.7C166.4 187.5 149.8 204 149.8 224.4V386.2H121.6C115.9 386.2 111.3 390.8 111.3 396.5V404.4C111.3 419.1 123.2 431 137.9 431H500.7C515.4 431 527.3 419.1 527.3 404.4V396.5C527.4 390.8 522.7 386.2 517.1 386.2ZM313.3 204H325.4C329.6 204 332.9 207.4 332.9 211.5C332.9 215.7 329.5 219 325.4 219H313.3C309.1 219 305.8 215.6 305.8 211.5C305.8 207.4 309.1 204 313.3 204ZM473.8 386.2H164.8V236.5H473.8V386.2Z" fill="black"/>
<path d="M344.7 270.3H448.4C452.6 270.3 455.9 266.9 455.9 262.8C455.9 258.6 452.5 255.3 448.4 255.3H344.7C340.5 255.3 337.2 258.7 337.2 262.8C337.2 267 340.5 270.3 344.7 270.3Z" fill="white"/>
<path d="M344.7 300.4H434.1C438.3 300.4 441.6 297 441.6 292.9C441.6 288.7 438.2 285.4 434.1 285.4H344.7C340.5 285.4 337.2 288.8 337.2 292.9C337.2 297 340.5 300.4 344.7 300.4Z" fill="white"/>
<path d="M344.7 335.5H448.4C452.6 335.5 455.9 332.1 455.9 328C455.9 323.8 452.5 320.5 448.4 320.5H344.7C340.5 320.5 337.2 323.9 337.2 328C337.2 332.1 340.5 335.5 344.7 335.5Z" fill="white"/>
<path d="M344.7 365.5H393.3C397.5 365.5 400.8 362.1 400.8 358C400.8 353.9 397.4 350.5 393.3 350.5H344.7C340.5 350.5 337.2 353.9 337.2 358C337.2 362.1 340.5 365.5 344.7 365.5Z" fill="white"/>
<path d="M302.3 255.6H186.9C183.8 255.6 181.3 258.1 181.3 261.2V345.4C181.3 348.5 183.8 351 186.9 351H245.1L269.2 375.1C270.3 376.2 271.7 376.7 273.1 376.7C273.8 376.7 274.5 376.6 275.2 376.3C277.3 375.4 278.6 373.4 278.6 371.2V351H302.2C305.3 351 307.8 348.5 307.8 345.4V261.2C307.8 258.1 305.3 255.6 302.3 255.6ZM245.8 322H222.9C220 322 217.6 319.6 217.6 316.7C217.6 313.8 220 311.4 222.9 311.4H245.8C248.7 311.4 251.1 313.8 251.1 316.7C251.1 319.6 248.7 322 245.8 322ZM266.1 296.5H222.8C219.9 296.5 217.5 294.1 217.5 291.2C217.5 288.3 219.9 285.9 222.8 285.9H266.1C269 285.9 271.4 288.3 271.4 291.2C271.4 294.1 269 296.5 266.1 296.5Z" fill="white"/>
</svg>
