<svg width="639" height="729" viewBox="0 0 639 729" fill="none" xmlns="http://www.w3.org/2000/svg">
<path fill-rule="evenodd" clip-rule="evenodd" d="M0.199951 319C0.199951 415.8 43.3 502.4 111.5 561C127.7 575 138.6 594.6 144 615.3C155.5 659.3 197.3 670.8 232.4 646.1C265 623.1 300.2 635.4 291.9 673.2C275.6 748 393.8 747.6 376.7 671.5C371.2 647.4 380.7 634.4 405 626.2C411.5 624.4 418 622.4 424.5 620C548.9 576.5 638.2 458.1 638.2 318.9C638.2 142.7 495.5 0 319.3 0C143.1 0.1 0.199951 142.8 0.199951 319ZM299.4 647.5C297.1 641.3 301.2 638.7 303.7 644.7C314.9 672.7 294 696.5 329.2 712C335.4 714.7 331.2 722.8 325.2 720.2C281 700.6 308.7 670.8 299.4 647.5ZM156.3 606.8C159.6 620 168.6 630.1 180.1 637.6C185.6 641.1 180.1 649.6 174.6 645.9C160.9 637.1 155.6 624.9 151.6 609.3C150 603 154.6 600.5 156.3 606.8Z" fill="white"/>
<path d="M319.2 598.5C475.441 598.5 602.1 471.841 602.1 315.6C602.1 159.359 475.441 32.7 319.2 32.7C162.959 32.7 36.3 159.359 36.3 315.6C36.3 471.841 162.959 598.5 319.2 598.5Z" fill="#FEC412"/>
<path d="M492.4 390.5C492.4 390.4 492.3 390.4 492.3 390.3C492.2 390.1 492.2 389.9 492.1 389.7C492 389.5 483 366.1 478.3 357C478 356.2 477.5 355.6 476.9 354.6L476.6 354.2C474.1 350.2 468.5 349.3 464.6 350.7C462.4 351.5 460.7 352.8 459.5 354.8C456.5 350.2 451 348.3 445.7 350.2C442.8 351.3 440.6 353.4 439.2 356.3C436 352.5 430.8 351.1 426 352.9C422.6 354.1 420.1 356.7 418.9 359.9L407.2 328.2C406 325 403.8 322.3 401 320.7C398.1 319.1 395 318.8 392.2 319.8C386.4 321.9 383.8 329.2 386.3 335.9L407 391.8C405.8 390.4 404.8 389.1 403.9 388.2C397 380.4 388 377.2 382.5 380.7C380.9 381.7 379.9 383.1 379.6 384.8C378.8 389.3 383 395 387.4 400.9C388.7 402.7 390.1 404.5 391.3 406.3C395.9 413.2 405.8 427.1 408.8 430.4C414.1 436.2 418.8 440.5 422.7 443.1C430.6 448.9 439.5 451.9 448.9 451.9C454.8 451.9 460.8 450.8 467.1 448.5C486 441.4 504.1 422 492.4 390.5Z" fill="black"/>
<path d="M366.9 391.2H324.9C320.1 391.2 315.5 392.2 311.3 393.9V224.6C311.3 217.1 317.4 211 324.9 211H437.7V333C437.7 338.9 442.5 343.7 448.4 343.7C454.3 343.7 459.1 338.9 459.1 333V200.3C459.1 194.4 454.3 189.6 448.4 189.6H324.9C315.5 189.6 306.9 193.4 300.6 199.4C294.3 193.3 285.8 189.6 276.3 189.6H152.8C146.9 189.6 142.1 194.4 142.1 200.3V401.8C142.1 407.7 146.9 412.5 152.8 412.5H276.3C283.8 412.5 289.9 418.6 289.9 426.1C289.9 432 294.7 436.8 300.6 436.8C306.5 436.8 311.3 432 311.3 426.1C311.3 418.6 317.4 412.5 324.9 412.5H366.9C372.8 412.5 377.6 407.7 377.6 401.8C377.6 396 372.8 391.2 366.9 391.2ZM289.9 394C285.7 392.2 281.1 391.3 276.3 391.3H163.5V211.2H276.3C283.8 211.2 289.9 217.3 289.9 224.8V394Z" fill="black"/>
<path d="M267.1 232.3H186C182.5 232.3 179.6 235.2 179.6 238.7C179.6 242.2 182.5 245.1 186 245.1H267.1C270.6 245.1 273.5 242.2 273.5 238.7C273.5 235.2 270.7 232.3 267.1 232.3Z" fill="white"/>
<path d="M267.1 262.4H186C182.5 262.4 179.6 265.3 179.6 268.8C179.6 272.3 182.5 275.2 186 275.2H267.1C270.6 275.2 273.5 272.3 273.5 268.8C273.6 265.2 270.7 262.4 267.1 262.4Z" fill="white"/>
<path d="M267.1 292.4H186C182.5 292.4 179.6 295.3 179.6 298.8C179.6 302.3 182.5 305.2 186 305.2H267.1C270.6 305.2 273.5 302.3 273.5 298.8C273.6 295.3 270.7 292.4 267.1 292.4Z" fill="white"/>
<path d="M414.8 232.3H333.7C330.2 232.3 327.3 235.2 327.3 238.7C327.3 242.2 330.2 245.1 333.7 245.1H414.8C418.3 245.1 421.2 242.2 421.2 238.7C421.2 235.2 418.3 232.3 414.8 232.3Z" fill="white"/>
<path d="M421.2 268.8C421.2 265.3 418.3 262.4 414.8 262.4H333.7C330.2 262.4 327.3 265.3 327.3 268.8C327.3 272.3 330.2 275.2 333.7 275.2H414.8C418.3 275.2 421.2 272.3 421.2 268.8Z" fill="white"/>
<path d="M333.7 292.4C330.2 292.4 327.3 295.3 327.3 298.8C327.3 302.3 330.2 305.2 333.7 305.2H376.2C379.7 305.2 382.6 302.3 382.6 298.8C382.6 295.3 379.7 292.4 376.2 292.4H333.7Z" fill="white"/>
<path d="M267.1 322.4H186C182.5 322.4 179.6 325.3 179.6 328.8C179.6 332.3 182.5 335.2 186 335.2H267.1C270.6 335.2 273.5 332.3 273.5 328.8C273.6 325.3 270.7 322.4 267.1 322.4Z" fill="white"/>
</svg>
