<svg width="639" height="730" viewBox="0 0 639 730" fill="none" xmlns="http://www.w3.org/2000/svg">
<path fill-rule="evenodd" clip-rule="evenodd" d="M0.199951 319.6C0.199951 416.4 43.3 503 111.5 561.6C127.7 575.6 138.6 595.2 144 615.9C155.5 659.9 197.3 671.4 232.4 646.7C265 623.7 300.2 636 291.9 673.8C275.6 748.6 393.8 748.2 376.7 672.1C371.2 648 380.7 635 405 626.8C411.5 625 418 623 424.5 620.6C548.9 577.1 638.2 458.7 638.2 319.5C638.2 143.3 495.5 0.599976 319.3 0.599976C143.1 0.699976 0.199951 143.4 0.199951 319.6ZM299.3 648C297 641.8 301.1 639.2 303.6 645.2C314.8 673.2 293.9 697 329.1 712.5C335.3 715.2 331.1 723.3 325.1 720.7C281 701.2 308.6 671.3 299.3 648ZM156.2 607.4C159.5 620.6 168.5 630.7 180 638.2C185.5 641.7 180 650.2 174.5 646.5C160.8 637.7 155.5 625.5 151.5 609.9C149.9 603.6 154.6 601.1 156.2 607.4Z" fill="white"/>
<path d="M319.1 599.1C475.341 599.1 602 472.441 602 316.2C602 159.959 475.341 33.3 319.1 33.3C162.859 33.3 36.2 159.959 36.2 316.2C36.2 472.441 162.859 599.1 319.1 599.1Z" fill="#FEC412"/>
<path d="M194 320.1V344.4C194 347.7 196.7 350.4 200 350.4C203.3 350.4 206 347.7 206 344.4V320.1C206 316.8 203.3 314.1 200 314.1C196.7 314.2 194 316.8 194 320.1Z" fill="white"/>
<path d="M210.7 308V344.5C210.7 347.8 213.4 350.5 216.7 350.5C220 350.5 222.7 347.8 222.7 344.5V308C222.7 304.7 220 302 216.7 302C213.4 302 210.7 304.7 210.7 308Z" fill="white"/>
<path d="M227.4 295.8V344.4C227.4 347.7 230.1 350.4 233.4 350.4C236.7 350.4 239.4 347.7 239.4 344.4V295.8C239.4 292.5 236.7 289.8 233.4 289.8C230 289.8 227.4 292.5 227.4 295.8Z" fill="white"/>
<path d="M244.1 314.1V344.5C244.1 347.8 246.8 350.5 250.1 350.5C253.4 350.5 256.1 347.8 256.1 344.5V314.1C256.1 310.8 253.4 308.1 250.1 308.1C246.8 308.1 244.1 310.8 244.1 314.1Z" fill="white"/>
<path d="M260.7 303.9V344.4C260.7 347.7 263.4 350.4 266.7 350.4C270 350.4 272.7 347.7 272.7 344.4V303.9C272.7 300.6 270 297.9 266.7 297.9C263.4 297.9 260.7 300.6 260.7 303.9Z" fill="white"/>
<path d="M277.4 291.8V344.5C277.4 347.8 280.1 350.5 283.4 350.5C286.7 350.5 289.4 347.8 289.4 344.5V291.8C289.4 288.5 286.7 285.8 283.4 285.8C280.1 285.8 277.4 288.5 277.4 291.8Z" fill="white"/>
<path d="M300.1 273.6C296.8 273.6 294.1 276.3 294.1 279.6V344.4C294.1 347.7 296.8 350.4 300.1 350.4C303.4 350.4 306.1 347.7 306.1 344.4V279.6C306.1 276.3 303.4 273.6 300.1 273.6Z" fill="white"/>
<path d="M307.1 250.2C305.2 247.5 301.4 246.9 298.8 248.9L251.1 283.7L238 267.6C236 265.1 232.4 264.7 229.8 266.6L192.7 293.7C190 295.6 189.5 299.4 191.4 302C192.6 303.6 194.4 304.5 196.2 304.5C197.4 304.5 198.7 304.1 199.7 303.4L232.3 279.6L245.4 295.7C247.4 298.2 251 298.6 253.6 296.7L305.8 258.6C308.5 256.6 309 252.9 307.1 250.2Z" fill="white"/>
<path d="M417.4 340.7C415.5 337.6 413.8 328.3 413.5 318.8C426.5 309.1 436.5 293.3 441.7 277.1C444 275.9 445.8 273.8 446.4 271.1C454.9 232.2 453.2 206.9 440.8 191.6C430.9 179.3 414.9 173.5 389.1 173C388.4 172.9 387.7 173 387.1 173C386.4 173 385.7 173 385.1 173C359.4 173.5 343.4 179.2 333.6 191.4C321.4 206.6 319.6 231.8 328.1 270.7C328.7 273.3 330.4 275.5 332.7 276.6C337.9 292.9 347.9 308.9 361 318.7C360.7 328.2 359 337.5 357.1 340.6C310.8 350.9 290.1 375.4 290.1 419.8V436.9C290.1 448.5 299.5 457.9 311.1 457.9H322.1C325.2 457.9 327.7 455.4 327.7 452.3V408.8C327.7 407.2 329 405.8 330.7 405.8C332.3 405.8 333.7 407.1 333.7 408.8V452.3C333.7 455.4 336.2 457.9 339.3 457.9H435.7C438.8 457.9 441.3 455.4 441.3 452.3V408.8C441.3 407.2 442.6 405.8 444.3 405.8C445.9 405.8 447.3 407.1 447.3 408.8V452.3C447.3 455.4 449.8 457.9 452.9 457.9H463.9C475.5 457.9 484.9 448.5 484.9 436.9V419.8C484.4 375.5 463.7 351 417.4 340.7ZM387.1 357.6L368.2 344.5C370.7 338.9 371.9 331.5 372.4 325.4C377.1 327.2 382 328.3 387.2 328.3C392.3 328.3 397.3 327.3 402 325.4C402.5 331.5 403.7 338.9 406.2 344.5L387.1 357.6ZM387.1 316.3C367.6 316.3 350.8 294.8 344 273.5C344.5 272.7 344.9 271.9 345.1 270.9L353.2 233.5C353.5 233.5 353.9 233.5 354.2 233.7L386.5 250.8C388.7 252 391.4 251.6 393.2 250C395.1 248.4 395.7 245.7 394.9 243.4L390.3 230.9C397.8 234.3 410.3 239.1 422.3 239.4C422.9 242.5 426.5 261.6 429.3 271.6C429.5 272.4 429.9 273.1 430.2 273.8C423.3 295 406.5 316.3 387.1 316.3Z" fill="black"/>
<path d="M289.3 371.9H165.8V223.2C165.8 218 170 213.7 175.3 213.7H229.2V214.2C229.2 220.3 234.2 225.3 240.3 225.3H312C313.5 225.3 314.8 224.1 314.9 222.5C315.6 211 318.1 201.4 322.5 193.5C323.3 192 322.2 190.2 320.5 190.2H240.3C234.2 190.2 229.2 195.2 229.2 201.3V201.8H175.3C163.5 201.8 153.9 211.4 153.9 223.2V381.7C153.9 393.5 163.5 403.1 175.3 403.1H262.4L216.8 448.7C214.5 451 214.1 454.7 216.2 457.1C217.4 458.5 219.1 459.2 220.8 459.2C222.3 459.2 223.9 458.6 225 457.4L279.3 403.1H283C283 403.1 287.2 383.4 291.4 375.2C292.1 373.8 291.1 371.9 289.3 371.9Z" fill="black"/>
<path d="M329.6 192.5C330.7 191.8 331.8 191 333 190.3C332.9 190.2 332.8 190 332.8 189.9C332.9 189.8 333.1 189.6 333.2 189.5C333.3 190.1 333.8 191 333.6 191.2C332.6 192.1 331.5 192.8 330.4 193.6C330 193.3 329.8 192.9 329.6 192.5Z" fill="black"/>
</svg>
