<svg width="638" height="730" viewBox="0 0 638 730" fill="none" xmlns="http://www.w3.org/2000/svg">
<path fill-rule="evenodd" clip-rule="evenodd" d="M0 319.1C0 415.9 43.1001 502.5 111.3 561.1C127.5 575.1 138.4 594.7 143.8 615.4C155.3 659.4 197.1 670.9 232.2 646.2C264.8 623.2 300 635.5 291.7 673.3C275.4 748.1 393.6 747.7 376.5 671.6C371 647.5 380.5 634.5 404.8 626.3C411.3 624.5 417.8 622.5 424.3 620.1C548.7 576.6 638 458.2 638 319C638 142.8 495.3 0.0999756 319.1 0.0999756C142.9 0.199976 0 142.9 0 319.1ZM299.2 647.5C296.9 641.3 301 638.7 303.5 644.7C314.7 672.7 293.8 696.5 329 712C335.2 714.7 331 722.8 325 720.2C280.8 700.7 308.5 670.8 299.2 647.5ZM156.1 606.9C159.4 620.1 168.4 630.2 179.9 637.7C185.4 641.2 179.9 649.7 174.4 646C160.7 637.2 155.4 625 151.4 609.4C149.8 603.1 154.4 600.6 156.1 606.9Z" fill="white"/>
<path d="M319 598.5C475.241 598.5 601.9 471.841 601.9 315.6C601.9 159.359 475.241 32.7 319 32.7C162.759 32.7 36.1 159.359 36.1 315.6C36.1 471.841 162.759 598.5 319 598.5Z" fill="#FEC412"/>
<path d="M462.5 366.4C462.4 366 462.3 365.7 462.2 365.3C462.1 365.1 462.1 364.9 462 364.7C461.8 364.3 461.6 363.9 461.4 363.5C461.3 363.4 461.3 363.2 461.2 363.1C460.5 362.1 459.7 361.3 458.7 360.6C458.5 360.5 458.4 360.4 458.2 360.3C457.9 360.1 457.5 359.9 457.2 359.8C456.9 359.7 456.7 359.6 456.4 359.6C456.1 359.5 455.8 359.4 455.5 359.3C455 359.2 454.4 359.1 453.9 359.1H453.8H423.2C418.3 359.1 414.3 363.1 414.3 368C414.3 372.9 418.3 376.9 423.2 376.9H432.3L400.8 408.4L380.3 387.9C376.8 384.4 371.2 384.4 367.7 387.9L345.7 409.9C342.2 413.4 342.2 419 345.7 422.5C349.2 426 354.8 426 358.3 422.5L374.1 406.7L394.6 427.2C396.3 428.9 398.6 429.8 400.9 429.8C403.2 429.8 405.4 428.9 407.2 427.2L445 389.4V398.5C445 403.4 449 407.4 453.9 407.4C458.8 407.4 462.8 403.4 462.8 398.5V367.9C462.8 367.6 462.7 367.3 462.7 367C462.6 367 462.6 366.7 462.5 366.4Z" fill="white"/>
<path d="M224.4 318.2C220.1 318.2 216.6 321.7 216.6 326V359.4C216.6 363.7 220.1 367.2 224.4 367.2H242.4C246.7 367.2 250.2 363.7 250.2 359.4V326C250.2 321.7 246.7 318.2 242.4 318.2H224.4Z" fill="black"/>
<path d="M270.6 278.1C266.3 278.1 262.8 281.6 262.8 285.9V359.4C262.8 363.7 266.3 367.2 270.6 367.2H288.6C292.9 367.2 296.4 363.7 296.4 359.4V285.9C296.4 281.6 292.9 278.1 288.6 278.1H270.6Z" fill="black"/>
<path d="M409.7 300.4C402.5 300.4 395.5 301.3 388.8 302.8V264.3C388.8 260 385.3 256.5 381 256.5H363C358.7 256.5 355.2 260 355.2 264.3V317.5C350.7 320.6 346.4 324.1 342.5 328V304.4C342.5 300.1 339 296.6 334.7 296.6H316.7C312.4 296.6 308.9 300.1 308.9 304.4V359.4C308.9 363.7 312.4 367.2 316.7 367.2H318.3C315.4 376.4 313.7 386.2 313.7 396.3C313.7 449.2 356.7 492.2 409.6 492.2C462.5 492.2 505.5 449.2 505.5 396.3C505.6 343.4 462.6 300.4 409.7 300.4ZM409.7 474.4C366.6 474.4 331.6 439.4 331.6 396.3C331.6 353.2 366.6 318.2 409.7 318.2C452.8 318.2 487.8 353.2 487.8 396.3C487.8 439.4 452.8 474.4 409.7 474.4Z" fill="black"/>
<path d="M282.3 205.8C290 204.2 297.9 203.4 305.8 203.4C358.1 203.4 404.2 238.6 417.9 289C419.5 294.9 424.9 298.8 430.8 298.8C432 298.8 433.1 298.6 434.3 298.3C441.4 296.4 445.6 289 443.7 281.9C426.9 219.9 370.2 176.6 305.9 176.6C296.2 176.6 286.5 177.6 277 179.5C269.8 181 265.1 188 266.6 195.2C268 202.7 275.1 207.3 282.3 205.8Z" fill="black"/>
<path d="M308.6 435.7C307.7 435.7 306.7 435.7 305.8 435.7C241.8 435.7 189.7 383.6 189.7 319.6C189.7 317.8 189.7 316.1 189.8 314.3C190.1 306.9 184.4 300.7 177.1 300.4C169.7 300.1 163.5 305.8 163.2 313.1C163.1 315.2 163.1 317.4 163.1 319.6C163.1 398.3 227.2 462.4 305.9 462.4C307.1 462.4 308.2 462.4 309.4 462.4C316.8 462.2 322.6 456.1 322.4 448.7C322.1 441.3 316.1 435.3 308.6 435.7Z" fill="black"/>
<path d="M271.1 230.5C271.1 228.8 271 227.1 270.9 225.5C270.6 220.6 266.2 217 261.4 217.3C256.5 217.7 252.8 221.9 253.2 226.8C253.3 228 253.3 229.3 253.3 230.6C253.3 259.1 230.1 282.2 201.7 282.2C173.2 282.2 150.1 259 150.1 230.6C150.1 202.1 173.3 179 201.7 179C213.9 179 225.8 183.4 235.1 191.3C238.8 194.5 244.4 194 247.6 190.3C250.8 186.6 250.3 181 246.6 177.8C234.1 167.1 218.1 161.2 201.6 161.2C163.3 161.2 132.2 192.3 132.2 230.6C132.2 268.9 163.3 300 201.6 300C239.9 300 271.1 268.8 271.1 230.5Z" fill="black"/>
<path d="M202.4 242.6L179.7 219.9C176.2 216.4 170.6 216.4 167.1 219.9C163.6 223.4 163.6 229 167.1 232.5L196.1 261.5C197.8 263.2 200.1 264.1 202.4 264.1C204.7 264.1 206.9 263.2 208.7 261.5L261.5 208.7C265 205.2 265 199.6 261.5 196.1C258 192.6 252.4 192.6 248.9 196.1L202.4 242.6Z" fill="white"/>
</svg>
